<svg width="298" height="120" viewBox="0 0 298 120" fill="none" xmlns="http://www.w3.org/2000/svg"><g clip-path="url(#clip0_728_23473)"><g opacity="0.4"><rect opacity="0.6" x="79.0703" y="53.123" width="74.614" height="74.614" rx="15.8501" transform="rotate(-24.5335 79.0703 53.123)" fill="#FFD9AB"/><rect opacity="0.6" x="134.367" y="11.1504" width="46.8375" height="46.8375" rx="9.94956" transform="rotate(103.768 134.367 11.1504)" fill="#FFD9AB"/><rect opacity="0.6" x="182.555" y="38.1191" width="46.8375" height="46.8375" rx="9.94956" transform="rotate(-21.2694 182.555 38.1191)" fill="#FFD9AB"/><rect x="180.949" y="14.7852" width="8.3957" height="8.3957" rx="2.40062" transform="rotate(-67.468 180.949 14.7852)" fill="#FFD9AB"/><rect width="8.3957" height="8.3957" rx="2.40062" transform="matrix(-0.3832 -0.923665 -0.923665 0.3832 86.9219 101.785)" fill="#FFD9AB"/><rect width="9.81878" height="9.81878" rx="2.80753" transform="matrix(0.746537 -0.665344 -0.665344 -0.746537 215.592 108.002)" fill="#FFD9AB"/><rect width="3.83746" height="3.83746" rx="1.09726" transform="matrix(0.184328 -0.982865 -0.982865 -0.184328 75.2144 25.002)" fill="#FFD9AB"/><rect width="3.83746" height="3.83746" rx="1.09726" transform="matrix(0.436878 0.899521 0.899521 -0.436878 59.6753 84.3516)" fill="#FFD9AB"/><rect width="3.83746" height="3.83746" rx="1.09726" transform="matrix(-0.184328 0.982865 0.982865 0.184328 191.707 103)" fill="#FFD9AB"/><rect width="3.83746" height="3.83746" rx="1.09726" transform="matrix(0.184328 -0.982865 -0.982865 -0.184328 68.2144 115.002)" fill="#FFD9AB"/><rect width="3.83746" height="3.83746" rx="1.09726" transform="matrix(0.184328 -0.982865 -0.982865 -0.184328 234.214 84.002)" fill="#FFD9AB"/></g><g opacity="0.3"><path d="M157.374 17L153 21.3738" stroke="#FF9600" stroke-width="1.5" stroke-linecap="round"/><path d="M148.818 13.1914L148.818 19.3769" stroke="#FF9600" stroke-width="1.5" stroke-linecap="round"/><path d="M144.534 21.5605L140.16 17.1867" stroke="#FF9600" stroke-width="1.5" stroke-linecap="round"/></g><g opacity="0.3"><path d="M157.374 103.188L153 98.8137" stroke="#FF9600" stroke-width="1.5" stroke-linecap="round"/><path d="M148.818 106.996L148.818 100.811" stroke="#FF9600" stroke-width="1.5" stroke-linecap="round"/><path d="M144.534 98.627L140.16 103.001" stroke="#FF9600" stroke-width="1.5" stroke-linecap="round"/></g><path d="M113 21.9961H112C98.8007 21.9961 92.201 21.9961 88.1005 26.0966C84 30.1971 84 36.7968 84 49.9961V69.9961C84 83.1954 84 89.7951 88.1005 93.8956C92.201 97.9961 98.8007 97.9961 112 97.9961H113" stroke="#3C5D87" stroke-width="1.3" stroke-linecap="round"/><path d="M185 21.9961H186C199.199 21.9961 205.799 21.9961 209.899 26.0966C214 30.1971 214 36.7968 214 49.9961V69.9961C214 83.1954 214 89.7951 209.899 93.8956C205.799 97.9961 199.199 97.9961 186 97.9961H185" stroke="#3C5D87" stroke-width="1.3" stroke-linecap="round"/><path d="M140 46C140 38.4575 140 34.6863 142.343 32.3431C144.686 30 148.458 30 156 30H190C197.542 30 201.314 30 203.657 32.3431C206 34.6863 206 38.4575 206 46V74C206 81.5425 206 85.3137 203.657 87.6569C201.314 90 197.542 90 190 90H156C148.458 90 144.686 90 142.343 87.6569C140 85.3137 140 81.5425 140 74V46Z" fill="white" stroke="#3C5D87" stroke-width="1.5"/><rect x="146" y="40" width="43" height="2" rx="1" fill="#F1F4F6"/><rect x="146" y="40" width="16" height="2" rx="1" fill="#FFD9AB"/><rect x="146" y="35" width="12" height="2" rx="1" fill="#E1E5EA"/><rect x="192" y="35" width="8" height="7" rx="1.5" fill="#FFD9AB"/><rect x="182" y="78" width="18" height="6" rx="1.5" fill="#3C5D87"/><rect x="162" y="48.5" width="38" height="25" rx="1.5" fill="white" stroke="#3C5D87" stroke-width="1.25"/><rect x="146" y="48" width="12" height="12" rx="3" fill="#FFD9AB"/><path d="M116 46C116 38.4575 116 34.6863 118.343 32.3431C120.686 30 124.458 30 132 30L166 30C173.542 30 177.314 30 179.657 32.3431C182 34.6863 182 38.4575 182 46V74C182 81.5425 182 85.3137 179.657 87.6569C177.314 90 173.542 90 166 90H132C124.458 90 120.686 90 118.343 87.6569C116 85.3137 116 81.5425 116 74V46Z" fill="white" stroke="#3C5D87" stroke-width="1.5"/><rect x="122" y="40" width="43" height="2" rx="1" fill="#F1F4F6"/><rect x="122" y="40" width="16" height="2" rx="1" fill="#FFD9AB"/><rect x="122" y="35" width="12" height="2" rx="1" fill="#E1E5EA"/><rect x="168" y="35" width="8" height="7" rx="1.5" fill="#FFD9AB"/><rect x="128" y="52" width="42" height="2" rx="1" fill="#E1E5EA"/><rect x="125" y="57" width="48" height="2" rx="1" fill="#E1E5EA"/><rect x="129" y="62" width="40" height="2" rx="1" fill="#E1E5EA"/><rect x="141" y="67" width="16" height="2" rx="1" fill="#E1E5EA"/><rect x="158" y="78" width="18" height="6" rx="1.5" fill="#3C5D87"/><path d="M92 46C92 38.4575 92 34.6863 94.3431 32.3431C96.6863 30 100.458 30 108 30L142 30C149.542 30 153.314 30 155.657 32.3431C158 34.6863 158 38.4575 158 46V74C158 81.5425 158 85.3137 155.657 87.6569C153.314 90 149.542 90 142 90H108C100.458 90 96.6863 90 94.3431 87.6569C92 85.3137 92 81.5425 92 74V46Z" fill="white" stroke="#3C5D87" stroke-width="1.5"/><rect x="97.9998" y="40" width="43" height="2" rx="1" fill="#F1F4F6"/><rect x="97.9998" y="40" width="16" height="2" rx="1" fill="#FFD9AB"/><rect x="97.9998" y="35" width="12" height="2" rx="1" fill="#E1E5EA"/><rect x="144" y="35" width="8" height="7" rx="1.5" fill="#FFD9AB"/><rect x="134" y="78" width="18" height="6" rx="1.5" fill="#3C5D87"/><rect x="98.0005" y="48.5" width="54" height="25" rx="1.5" fill="white" stroke="#3C5D87" stroke-width="1.25"/><path d="M98.5 56.5H151.5" stroke="#3C5D87" stroke-width="1.25"/><path d="M116 48V73" stroke="#3C5D87" stroke-width="1.25"/><path d="M134 48V73" stroke="#3C5D87" stroke-width="1.25"/><path d="M98.5 65H151.5" stroke="#3C5D87" stroke-width="1.25"/><rect x="147" y="51" width="3" height="2.5" rx="1" fill="#DBDEE1"/><rect x="147" y="59.5" width="3" height="2.5" rx="1" fill="#DBDEE1"/><rect x="147" y="68" width="3" height="2.5" rx="1" fill="#DBDEE1"/><rect x="129" y="51" width="3" height="2.5" rx="1" fill="#DBDEE1"/><rect x="129" y="59.5" width="3" height="2.5" rx="1" fill="#DBDEE1"/><rect x="129" y="68" width="3" height="2.5" rx="1" fill="#DBDEE1"/><rect x="111" y="51" width="3" height="2.5" rx="1" fill="#DBDEE1"/><rect x="111" y="59.5" width="3" height="2.5" rx="1" fill="#DBDEE1"/><rect x="111" y="68" width="3" height="2.5" rx="1" fill="#DBDEE1"/></g><defs><clipPath id="clip0_728_23473"><rect width="200" height="120" fill="white" transform="translate(49)"/></clipPath></defs></svg>