<svg width="323" height="133" viewBox="0 0 323 133" fill="none" xmlns="http://www.w3.org/2000/svg"><rect opacity="0.2" width="70.341" height="70.341" rx="15.8501" transform="matrix(-0.126684 0.991943 0.991943 0.126684 157.211 52.3672)" fill="#FFD9AB"/><rect opacity="0.2" width="49.3436" height="49.3436" rx="11.1187" transform="matrix(0.258819 0.965926 0.965926 -0.258819 88.5664 40.8398)" fill="#FFD9AB"/><rect opacity="0.4" x="103.992" y="19.9688" width="8.3957" height="8.3957" rx="2.40062" transform="rotate(112.532 103.992 19.9688)" fill="#FFD9AB"/><rect opacity="0.4" width="8.3957" height="8.3957" rx="2.40062" transform="matrix(0.3832 0.923665 0.923665 -0.3832 227.02 113.969)" fill="#FFD9AB"/><rect opacity="0.4" width="11.7275" height="11.7275" rx="3.35329" transform="matrix(-0.746537 0.665344 0.665344 0.746537 221.883 11.7812)" fill="#FFD9AB"/><rect opacity="0.4" width="7.83746" height="7.83746" rx="2" transform="matrix(0.3832 0.923665 0.923665 -0.3832 83.9961 94.2031)" fill="#FFD9AB"/><rect opacity="0.4" width="3.83746" height="3.83746" rx="1.09726" transform="matrix(-0.184328 0.982865 0.982865 0.184328 252.973 123)" fill="#FFD9AB"/><rect opacity="0.4" width="3.83746" height="3.83746" rx="1.09726" transform="matrix(-0.184328 0.982865 0.982865 0.184328 110.973 15)" fill="#FFD9AB"/><path d="M72 81.052C71.9998 97.552 78.0683 114.084 91.502 113.052C110.502 110.052 103.502 76.6056 103.502 64.052C103.502 35.5515 106 26.5507 117 24.5515C130.606 22.0785 139.5 44.0507 143.5 86.0507C147.5 128.051 158.422 131.243 166.5 128.551C181.5 123.551 181.5 98.5508 181.5 76.5508C181.5 54.5508 185.515 33.3813 194 30.552C200.041 28.5377 204.681 29.928 208.367 34.0508" stroke="#3C5D87" stroke-width="1.5" stroke-linecap="round" stroke-dasharray="3 4.5"/><path d="M208.367 34.0508C209.697 35.5387 210.903 37.3826 212.006 39.5508" stroke="#3C5D87" stroke-width="1.5" stroke-linecap="round"/><g opacity="0.4"><path d="M73.5938 61.5503C75.8484 47.6876 80.4213 36.183 88.5019 36.5503C99.5019 37.0503 100.502 53.0503 103.502 66.0503C106.502 79.0503 116.002 114.05 126.502 114.05C137.002 114.05 141.002 98.5503 143.002 89.0503C145.002 79.5503 152.502 48.5503 163.002 48.0503C173.502 47.5503 178.502 66.0503 181.002 77.0503C183.502 88.0503 187.502 112.05 199.502 110.05C211.502 108.05 214.551 75.4945 219.002 61.5503C226.502 38.0522 235.001 23.7075 244.002 26.0501C251.502 28.0021 259.503 35.5486 255.502 63.5503C252.002 87.5503 246.002 97.5503 239.002 98.5503C235.395 99.0655 232.009 94.2156 229.567 89.0503" stroke="#FF9600" stroke-width="1.5" stroke-linecap="round" stroke-dasharray="3 5"/><path d="M73.5918 61.5508C73.1682 64.1552 72.8264 66.8429 72.5586 69.5508" stroke="#FF9600" stroke-width="1.5" stroke-linecap="round"/><path d="M76.4987 68.0498C75.3759 68.8229 73.4428 70.2284 72.5582 71.6266C72.4391 71.8149 72.1293 71.8067 72.0373 71.6039C71.132 69.6078 69.8254 67.8712 69 67.0522" stroke="#FF9600" stroke-width="1.5" stroke-linecap="round" stroke-linejoin="round"/></g><rect x="129.75" y="74.8008" width="26.5" height="26.5" rx="7.25" fill="#FFD9AB" stroke="#3C5D87" stroke-width="1.5"/><path fill-rule="evenodd" clip-rule="evenodd" d="M146.617 83.0529C147.064 82.5764 147.817 82.5643 148.279 83.0261C148.741 83.488 148.728 84.2406 148.252 84.6873L144.306 88.3018L148.251 91.9157C148.728 92.3625 148.74 93.115 148.278 93.5769C147.816 94.0388 147.064 94.0267 146.617 93.5501L143.001 89.6025L139.332 93.5474C138.902 94.0101 138.174 94.0233 137.727 93.5765C137.281 93.1304 137.294 92.4032 137.756 91.9736L141.705 88.3018L137.757 84.6307C137.294 84.2004 137.281 83.4721 137.728 83.0253C138.174 82.5792 138.901 82.5924 139.331 83.0544L143.001 87.0012L146.617 83.0529Z" fill="#3C5D87"/><rect x="205" y="47.0508" width="28" height="28" rx="8" fill="#FEF6F0"/><rect x="205.75" y="47.8008" width="26.5" height="26.5" rx="7.25" stroke="#FF9600" stroke-opacity="0.5" stroke-width="1.5"/><path opacity="0.5" d="M218.87 64.3761C219.579 64.3761 220.169 63.9475 220.169 63.1975V63.069C220.169 62.5761 220.311 62.2975 220.784 61.7833L222.201 60.2618C223.122 59.2761 223.5 58.419 223.5 57.3047C223.5 55.1618 221.752 53.5547 219.059 53.5547C216.697 53.5547 215.138 54.669 214.595 56.2547C214.524 56.4475 214.5 56.6618 214.5 56.8118C214.5 57.4333 215.02 57.8618 215.728 57.8618C216.248 57.8618 216.697 57.6047 216.957 57.0261C217.287 56.1904 217.949 55.6975 218.988 55.6975C220.146 55.6975 220.807 56.4475 220.807 57.3261C220.807 57.9904 220.642 58.4618 219.815 59.3618L218.516 60.7761C217.76 61.569 217.571 62.1475 217.571 63.0475V63.1975C217.571 63.9475 218.138 64.3761 218.87 64.3761ZM217.287 67.0761C217.287 67.8904 218.02 68.5547 218.917 68.5547C219.791 68.5547 220.547 67.8904 220.547 67.0761C220.547 66.2618 219.791 65.5975 218.917 65.5975C218.02 65.5975 217.287 66.2618 217.287 67.0761Z" fill="#FF9600"/><rect x="91" y="52.0508" width="28" height="28" rx="8" fill="#3C5D87"/><path fill-rule="evenodd" clip-rule="evenodd" d="M111.786 60.6297C111.245 60.1251 110.394 60.1686 109.907 60.7256L102.85 68.8009L100.429 66.1978C99.9306 65.6613 99.0814 65.6607 98.5818 66.1964C98.0839 66.7305 98.1415 67.5743 98.7074 68.0357L101.986 70.7086C102.513 71.138 103.28 71.0981 103.759 70.6162L111.821 62.5109C112.343 61.9864 112.327 61.1342 111.786 60.6297Z" fill="#FFE999"/><rect x="167" y="63.0508" width="28" height="28" rx="8" fill="#3C5D87"/><path fill-rule="evenodd" clip-rule="evenodd" d="M187.786 71.6297C187.245 71.1251 186.394 71.1686 185.907 71.7256L178.85 79.8009L176.429 77.1978C175.931 76.6613 175.081 76.6607 174.582 77.1964C174.084 77.7305 174.141 78.5743 174.707 79.0357L177.986 81.7086C178.513 82.138 179.28 82.0981 179.759 81.6162L187.821 73.5109C188.343 72.9864 188.327 72.1342 187.786 71.6297Z" fill="#FFE999"/><path d="M207 39.0508C208.336 39.3477 211.101 40.1471 212.537 41.1664C212.718 41.2953 213.006 41.1702 213.02 40.9479C213.161 38.6793 214.041 36.1213 214.5 35.0508" stroke="#3C5D87" stroke-width="1.5" stroke-linecap="round" stroke-linejoin="round"/><g opacity="0.3"><path d="M154.391 110.051L154.391 103.865" stroke="#FF9600" stroke-width="1.5" stroke-linecap="round"/><path d="M161.889 106.949L157.516 102.575" stroke="#FF9600" stroke-width="1.5" stroke-linecap="round"/><path d="M159 98L165.186 98" stroke="#FF9600" stroke-width="1.5" stroke-linecap="round"/></g><g opacity="0.3"><path d="M130.996 68.0508L130.996 72.7184" stroke="#FF9600" stroke-width="1.1319" stroke-linecap="round"/><path d="M125.337 70.3906L128.637 73.6911" stroke="#FF9600" stroke-width="1.1319" stroke-linecap="round"/><path d="M127.662 76.0508L122.995 76.0508" stroke="#FF9600" stroke-width="1.1319" stroke-linecap="round"/></g></svg>