<svg width="129" height="98" viewBox="0 0 129 98" fill="none" xmlns="http://www.w3.org/2000/svg"><rect opacity="0.4" x="88.1093" y="12.8776" width="64.0709" height="64.0709" rx="16.6159" transform="rotate(74.4643 88.1093 12.8776)" fill="#FFD9AB" stroke="#FFD9AB" stroke-width="1.74904"/><rect opacity="0.45" x="37.6133" y="4.89844" width="13.8493" height="13.8493" rx="3.96001" transform="rotate(112.532 37.6133 4.89844)" fill="#FFD9AB"/><rect opacity="0.5" width="6.1394" height="6.1394" rx="1.75547" transform="matrix(0.3832 0.923665 0.923665 -0.3832 120.109 32.793)" fill="#FFD9AB"/><rect opacity="0.5" x="8.13281" y="72.793" width="6.1394" height="6.1394" rx="1.75547" transform="rotate(112.532 8.13281 72.793)" fill="#FFD9AB"/><rect opacity="0.5" width="8.7217" height="8.7217" rx="2.49384" transform="matrix(-0.184328 0.982865 0.982865 0.184328 120.641 77.9336)" fill="#FFD9AB"/><path d="M54 49C54 44.286 54 41.9289 55.4645 40.4645C56.9289 39 59.286 39 64 39H68C72.714 39 75.0711 39 76.5355 40.4645C78 41.9289 78 44.286 78 49V53C78 57.714 78 60.0711 76.5355 61.5355C75.0711 63 72.714 63 68 63H64C59.286 63 56.9289 63 55.4645 61.5355C54 60.0711 54 57.714 54 53V49Z" fill="white" stroke="#3C5D87" stroke-width="1.33333"/><path d="M61 50C61 48.1144 61 47.1716 61.5858 46.5858C62.1716 46 63.1144 46 65 46H67C68.8856 46 69.8284 46 70.4142 46.5858C71 47.1716 71 48.1144 71 50V52C71 53.8856 71 54.8284 70.4142 55.4142C69.8284 56 68.8856 56 67 56H65C63.1144 56 62.1716 56 61.5858 55.4142C61 54.8284 61 53.8856 61 52V50Z" fill="#3C5D87" stroke="#3C5D87" stroke-width="1.33333"/><path d="M54 19C54 14.286 54 11.9289 55.4645 10.4645C56.9289 9 59.286 9 64 9H68C72.714 9 75.0711 9 76.5355 10.4645C78 11.9289 78 14.286 78 19V23C78 27.714 78 30.0711 76.5355 31.5355C75.0711 33 72.714 33 68 33H64C59.286 33 56.9289 33 55.4645 31.5355C54 30.0711 54 27.714 54 23V19Z" fill="#FEF6F0" stroke="#FFD9AB" stroke-width="1.33333"/><path d="M114 7.5V8.5M90 1.5V3M114 11V12V12C114 12.929 114 13.3935 113.938 13.7822C113.6 15.9216 111.922 17.5996 109.782 17.9384C109.394 18 108.929 18 108 18H100C95.286 18 92.9289 18 91.4645 16.5355C90 15.0711 90 12.714 90 8V7.5V6.5" stroke="#FFD9AB" stroke-width="1.33333" stroke-linecap="round"/><path d="M114 94V92.5V92.5C114 89.2266 114 87.5899 113.263 86.3875C112.851 85.7147 112.285 85.1491 111.612 84.7368C110.41 84 108.773 84 105.5 84H98C95.1997 84 93.7996 84 92.73 84.545C91.7892 85.0243 91.0243 85.7892 90.545 86.73C90 87.7996 90 89.1997 90 92V92V92.5M90 97V95.5" stroke="#FFD9AB" stroke-width="1.33333" stroke-linecap="round"/><path d="M18 34C18 29.286 18 26.9289 19.4645 25.4645C20.9289 24 23.286 24 28 24H32C36.714 24 39.0711 24 40.5355 25.4645C42 26.9289 42 29.286 42 34V38C42 42.714 42 45.0711 40.5355 46.5355C39.0711 48 36.714 48 32 48H28C23.286 48 20.9289 48 19.4645 46.5355C18 45.0711 18 42.714 18 38V34Z" fill="#FEF6F0" stroke="#FFD9AB" stroke-width="1.33333"/><path d="M18 64C18 59.286 18 56.9289 19.4645 55.4645C20.9289 54 23.286 54 28 54H32C36.714 54 39.0711 54 40.5355 55.4645C42 56.9289 42 59.286 42 64V68C42 72.714 42 75.0711 40.5355 76.5355C39.0711 78 36.714 78 32 78H28C23.286 78 20.9289 78 19.4645 76.5355C18 75.0711 18 72.714 18 68V64Z" fill="white" stroke="#3C5D87" stroke-width="1.33333"/><path d="M44 66H46C47.1046 66 48 66.8954 48 68V75C48 76.1046 48.8954 77 50 77H52" stroke="#FFD9AB" stroke-width="1.25" stroke-linecap="round"/><path d="M44 66H46C47.1046 66 48 65.1046 48 64V57C48 55.8954 48.8954 55 50 55H52" stroke="#3C5D87" stroke-width="1.25" stroke-linecap="round"/><path d="M80 51H82C83.1046 51 84 50.1046 84 49V42C84 40.8954 84.8954 40 86 40H88" stroke="#FFC066" stroke-width="1.25" stroke-linecap="round"/><path d="M80 51H82C83.1046 51 84 51.8954 84 53V60C84 61.1046 84.8954 62 86 62H88" stroke="#FFC066" stroke-width="1.25" stroke-linecap="round"/><g opacity="0.6"><path d="M80 21H82C83.1046 21 84 20.1046 84 19V12C84 10.8954 84.8954 10 86 10H88" stroke="#FFD9AB" stroke-width="1.25" stroke-linecap="round"/><path d="M80 21H82C83.1046 21 84 21.8954 84 23V30C84 31.1046 84.8954 32 86 32H88" stroke="#FFD9AB" stroke-width="1.25" stroke-linecap="round"/></g><g opacity="0.6"><path d="M44 35H46C47.1046 35 48 34.1046 48 33V26C48 24.8954 48.8954 24 50 24H52" stroke="#FFD9AB" stroke-width="1.25" stroke-linecap="round"/><path d="M44 35H46C47.1046 35 48 35.8954 48 37V44C48 45.1046 48.8954 46 50 46H52" stroke="#FFD9AB" stroke-width="1.25" stroke-linecap="round"/></g><g opacity="0.6"><path d="M52 85H50C48.8954 85 48 85.8954 48 87V88.25M48 94.5V92.5" stroke="#FFD9AB" stroke-width="1.25" stroke-linecap="round"/><path d="M52 16.5H50C48.8954 16.5 48 15.6046 48 14.5V13.25M48 7V7.5M48 10V11" stroke="#FFD9AB" stroke-width="1.25" stroke-linecap="round"/></g><g opacity="0.6"><path d="M80 81H82C83.1046 81 84 80.1046 84 79V72C84 70.8954 84.8954 70 86 70H88" stroke="#FFD9AB" stroke-width="1.25" stroke-linecap="round"/><path d="M80 81H82C83.1046 81 84 81.8954 84 83V90C84 91.1046 84.8954 92 86 92H88" stroke="#FFD9AB" stroke-width="1.25" stroke-linecap="round"/></g><path fill-rule="evenodd" clip-rule="evenodd" d="M35.6861 61.8281C35.2356 61.408 34.5268 61.4442 34.1214 61.908L28.2448 68.6321L26.2296 66.4645C25.8143 66.0178 25.1072 66.0173 24.6912 66.4634C24.2766 66.9081 24.3245 67.6107 24.7958 67.9949L27.3708 70.094C27.8976 70.5234 28.6642 70.4835 29.1435 70.0016L35.7155 63.3945C36.1499 62.9578 36.1366 62.2482 35.6861 61.8281Z" fill="#3C5D87"/><path d="M54 79C54 74.286 54 71.9289 55.4645 70.4645C56.9289 69 59.286 69 64 69H68C72.714 69 75.0711 69 76.5355 70.4645C78 71.9289 78 74.286 78 79V83C78 87.714 78 90.0711 76.5355 91.5355C75.0711 93 72.714 93 68 93H64C59.286 93 56.9289 93 55.4645 91.5355C54 90.0711 54 87.714 54 83V79Z" fill="#FEF6F0" stroke="#FFD9AB" stroke-width="1.33333"/><path d="M90 34C90 29.286 90 26.9289 91.4645 25.4645C92.9289 24 95.286 24 100 24H104C108.714 24 111.071 24 112.536 25.4645C114 26.9289 114 29.286 114 34V38C114 42.714 114 45.0711 112.536 46.5355C111.071 48 108.714 48 104 48H100C95.286 48 92.9289 48 91.4645 46.5355C90 45.0711 90 42.714 90 38V34Z" fill="white"/><path d="M90 34C90 29.286 90 26.9289 91.4645 25.4645C92.9289 24 95.286 24 100 24H104C108.714 24 111.071 24 112.536 25.4645C114 26.9289 114 29.286 114 34V38C114 42.714 114 45.0711 112.536 46.5355C111.071 48 108.714 48 104 48H100C95.286 48 92.9289 48 91.4645 46.5355C90 45.0711 90 42.714 90 38V34Z" stroke="#FFD9AB" stroke-width="1.33333"/><path d="M90 34C90 29.286 90 26.9289 91.4645 25.4645C92.9289 24 95.286 24 100 24H104C108.714 24 111.071 24 112.536 25.4645C114 26.9289 114 29.286 114 34V38C114 42.714 114 45.0711 112.536 46.5355C111.071 48 108.714 48 104 48H100C95.286 48 92.9289 48 91.4645 46.5355C90 45.0711 90 42.714 90 38V34Z" stroke="#FFC066" stroke-width="1.33333"/><path d="M90 64C90 59.286 90 56.9289 91.4645 55.4645C92.9289 54 95.286 54 100 54H104C108.714 54 111.071 54 112.536 55.4645C114 56.9289 114 59.286 114 64V68C114 72.714 114 75.0711 112.536 76.5355C111.071 78 108.714 78 104 78H100C95.286 78 92.9289 78 91.4645 76.5355C90 75.0711 90 72.714 90 68V64Z" fill="white"/><path d="M90 64C90 59.286 90 56.9289 91.4645 55.4645C92.9289 54 95.286 54 100 54H104C108.714 54 111.071 54 112.536 55.4645C114 56.9289 114 59.286 114 64V68C114 72.714 114 75.0711 112.536 76.5355C111.071 78 108.714 78 104 78H100C95.286 78 92.9289 78 91.4645 76.5355C90 75.0711 90 72.714 90 68V64Z" stroke="#FFD9AB" stroke-width="1.33333"/><path d="M90 64C90 59.286 90 56.9289 91.4645 55.4645C92.9289 54 95.286 54 100 54H104C108.714 54 111.071 54 112.536 55.4645C114 56.9289 114 59.286 114 64V68C114 72.714 114 75.0711 112.536 76.5355C111.071 78 108.714 78 104 78H100C95.286 78 92.9289 78 91.4645 76.5355C90 75.0711 90 72.714 90 68V64Z" stroke="#FFC066" stroke-width="1.33333"/><path d="M102.015 38.595C102.585 38.595 103.06 38.215 103.06 37.55V37.436C103.06 36.999 103.174 36.752 103.554 36.296L104.694 34.947C105.435 34.073 105.739 33.313 105.739 32.325C105.739 30.425 104.333 29 102.167 29C100.267 29 99.013 29.988 98.576 31.394C98.519 31.565 98.5 31.755 98.5 31.888C98.5 32.439 98.918 32.819 99.488 32.819C99.906 32.819 100.267 32.591 100.476 32.078C100.742 31.337 101.274 30.9 102.11 30.9C103.041 30.9 103.573 31.565 103.573 32.344C103.573 32.933 103.44 33.351 102.775 34.149L101.73 35.403C101.122 36.106 100.97 36.619 100.97 37.417V37.55C100.97 38.215 101.426 38.595 102.015 38.595ZM100.742 40.989C100.742 41.711 101.331 42.3 102.053 42.3C102.756 42.3 103.364 41.711 103.364 40.989C103.364 40.267 102.756 39.678 102.053 39.678C101.331 39.678 100.742 40.267 100.742 40.989Z" fill="#FFD9AB"/><path d="M102.015 68.595C102.585 68.595 103.06 68.215 103.06 67.55V67.436C103.06 66.999 103.174 66.752 103.554 66.296L104.694 64.947C105.435 64.073 105.739 63.313 105.739 62.325C105.739 60.425 104.333 59 102.167 59C100.267 59 99.013 59.988 98.576 61.394C98.519 61.565 98.5 61.755 98.5 61.888C98.5 62.439 98.918 62.819 99.488 62.819C99.906 62.819 100.267 62.591 100.476 62.078C100.742 61.337 101.274 60.9 102.11 60.9C103.041 60.9 103.573 61.565 103.573 62.344C103.573 62.933 103.44 63.351 102.775 64.149L101.73 65.403C101.122 66.106 100.97 66.619 100.97 67.417V67.55C100.97 68.215 101.426 68.595 102.015 68.595ZM100.742 70.989C100.742 71.711 101.331 72.3 102.053 72.3C102.756 72.3 103.364 71.711 103.364 70.989C103.364 70.267 102.756 69.678 102.053 69.678C101.331 69.678 100.742 70.267 100.742 70.989Z" fill="#FFD9AB"/></svg>