<svg width="323" height="133" viewBox="0 0 323 133" fill="none" xmlns="http://www.w3.org/2000/svg"><g clip-path="url(#clip0_4342_107366)"><g opacity="0.4"><rect opacity="0.6" x="221.185" y="73.8828" width="74.614" height="74.614" rx="15.8501" transform="rotate(155.466 221.185 73.8828)" fill="#FFD9AB"/><rect opacity="0.6" x="195.888" y="115.859" width="46.8375" height="46.8375" rx="9.94956" transform="rotate(-76.2319 195.888 115.859)" fill="#FFD9AB"/><rect opacity="0.6" x="117.7" y="88.8867" width="46.8375" height="46.8375" rx="9.94956" transform="rotate(158.731 117.7 88.8867)" fill="#FFD9AB"/><rect x="99.3057" y="112.223" width="8.3957" height="8.3957" rx="2.40062" transform="rotate(112.532 99.3057 112.223)" fill="#FFD9AB"/><rect width="8.3957" height="8.3957" rx="2.40062" transform="matrix(0.3832 0.923665 0.923665 -0.3832 233.333 25.2227)" fill="#FFD9AB"/><rect width="9.81878" height="9.81878" rx="2.80753" transform="matrix(-0.746537 0.665344 0.665344 0.746537 84.6636 19.0039)" fill="#FFD9AB"/><rect width="3.83746" height="3.83746" rx="1.09726" transform="matrix(-0.184328 0.982865 0.982865 0.184328 235.041 62.0039)" fill="#FFD9AB"/><rect width="3.83746" height="3.83746" rx="1.09726" transform="matrix(0.436878 0.899521 0.899521 -0.436878 69.0088 90.3555)" fill="#FFD9AB"/><rect width="3.83746" height="3.83746" rx="1.09726" transform="matrix(-0.184328 0.982865 0.982865 0.184328 201.041 109.006)" fill="#FFD9AB"/><rect width="3.83746" height="3.83746" rx="1.09726" transform="matrix(-0.184328 0.982865 0.982865 0.184328 232.041 12.0039)" fill="#FFD9AB"/><rect width="3.83746" height="3.83746" rx="1.09726" transform="matrix(-0.184328 0.982865 0.982865 0.184328 66.041 43.0039)" fill="#FFD9AB"/></g><g opacity="0.3"><path d="M89.0073 62.4922L93.3812 66.866" stroke="#FF9600" stroke-width="1.5" stroke-linecap="round"/><path d="M85.1978 71.0469L91.3833 71.0469" stroke="#FF9600" stroke-width="1.5" stroke-linecap="round"/><path d="M93.5679 75.332L89.194 79.7059" stroke="#FF9600" stroke-width="1.5" stroke-linecap="round"/></g><g opacity="0.3"><path d="M216.081 120.25L216.081 114.064" stroke="#FF9600" stroke-width="1.5" stroke-linecap="round"/><path d="M224.824 116.895L220.45 112.521" stroke="#FF9600" stroke-width="1.5" stroke-linecap="round"/><path d="M221.935 107.945L228.12 107.945" stroke="#FF9600" stroke-width="1.5" stroke-linecap="round"/></g><path fill-rule="evenodd" clip-rule="evenodd" d="M100.677 32.3471C98.3335 34.6902 98.3335 38.4614 98.3335 46.0039V95.0039C98.3335 102.546 98.3335 106.318 100.677 108.661C103.02 111.004 106.791 111.004 114.333 111.004H151.333C155.105 111.004 156.99 111.004 158.162 109.832C158.222 109.772 158.279 109.71 158.333 109.646C158.388 109.71 158.445 109.772 158.505 109.832C159.677 111.004 161.562 111.004 165.333 111.004H202.333C209.876 111.004 213.647 111.004 215.99 108.661C218.333 106.318 218.333 102.546 218.333 95.0039V46.0039C218.333 38.4614 218.333 34.6902 215.99 32.3471C213.647 30.0039 209.876 30.0039 202.333 30.0039H165.333C161.562 30.0039 159.677 30.0039 158.505 31.1755C158.445 31.2357 158.388 31.2978 158.333 31.362C158.279 31.2978 158.222 31.2357 158.162 31.1755C156.99 30.0039 155.105 30.0039 151.333 30.0039H114.333C106.791 30.0039 103.02 30.0039 100.677 32.3471Z" fill="#FFD9AB"/><path d="M158.162 109.832L158.692 110.363V110.363L158.162 109.832ZM158.333 109.646L158.906 109.162L158.333 108.483L157.761 109.162L158.333 109.646ZM158.505 109.832L157.975 110.363V110.363L158.505 109.832ZM158.505 31.1755L157.975 30.6451L157.975 30.6452L158.505 31.1755ZM158.333 31.362L157.761 31.846L158.333 32.5243L158.906 31.846L158.333 31.362ZM158.162 31.1755L158.692 30.6452L158.692 30.6451L158.162 31.1755ZM99.0835 46.0039C99.0835 42.2115 99.0851 39.4426 99.3697 37.3257C99.6514 35.2303 100.198 33.8864 101.207 32.8774L100.146 31.8167C98.8122 33.1509 98.1872 34.8641 97.8831 37.1258C97.5819 39.3659 97.5835 42.2539 97.5835 46.0039H99.0835ZM99.0835 95.0039V46.0039H97.5835V95.0039H99.0835ZM101.207 108.13C100.198 107.121 99.6514 105.777 99.3697 103.682C99.0851 101.565 99.0835 98.7963 99.0835 95.0039H97.5835C97.5835 98.7539 97.5819 101.642 97.8831 103.882C98.1872 106.144 98.8122 107.857 100.146 109.191L101.207 108.13ZM114.333 110.254C110.541 110.254 107.772 110.252 105.655 109.968C103.56 109.686 102.216 109.139 101.207 108.13L100.146 109.191C101.48 110.525 103.194 111.15 105.455 111.454C107.695 111.756 110.583 111.754 114.333 111.754V110.254ZM151.333 110.254H114.333V111.754H151.333V110.254ZM157.632 109.302C157.208 109.725 156.629 109.979 155.623 110.114C154.595 110.252 153.24 110.254 151.333 110.254V111.754C153.198 111.754 154.672 111.756 155.823 111.601C156.995 111.443 157.944 111.111 158.692 110.363L157.632 109.302ZM157.761 109.162C157.72 109.21 157.677 109.256 157.632 109.302L158.692 110.363C158.767 110.288 158.839 110.21 158.906 110.13L157.761 109.162ZM159.035 109.302C158.99 109.256 158.947 109.21 158.906 109.162L157.761 110.13C157.828 110.21 157.9 110.288 157.975 110.363L159.035 109.302ZM165.333 110.254C163.427 110.254 162.072 110.252 161.044 110.114C160.038 109.979 159.459 109.725 159.035 109.302L157.975 110.363C158.723 111.111 159.672 111.443 160.844 111.601C161.995 111.756 163.469 111.754 165.333 111.754V110.254ZM202.333 110.254H165.333V111.754H202.333V110.254ZM215.46 108.13C214.451 109.139 213.107 109.686 211.012 109.968C208.895 110.252 206.126 110.254 202.333 110.254V111.754C206.084 111.754 208.972 111.756 211.212 111.454C213.473 111.15 215.187 110.525 216.521 109.191L215.46 108.13ZM217.583 95.0039C217.583 98.7963 217.582 101.565 217.297 103.682C217.016 105.777 216.469 107.121 215.46 108.13L216.521 109.191C217.855 107.857 218.48 106.144 218.784 103.882C219.085 101.642 219.083 98.7539 219.083 95.0039H217.583ZM217.583 46.0039V95.0039H219.083V46.0039H217.583ZM215.46 32.8774C216.469 33.8864 217.016 35.2303 217.297 37.3257C217.582 39.4426 217.583 42.2115 217.583 46.0039H219.083C219.083 42.2539 219.085 39.3659 218.784 37.1258C218.48 34.8641 217.855 33.1509 216.521 31.8167L215.46 32.8774ZM202.333 30.7539C206.126 30.7539 208.895 30.7555 211.012 31.0401C213.107 31.3218 214.451 31.8684 215.46 32.8774L216.521 31.8167C215.187 30.4826 213.473 29.8576 211.212 29.5535C208.972 29.2523 206.084 29.2539 202.333 29.2539V30.7539ZM165.333 30.7539H202.333V29.2539H165.333V30.7539ZM159.035 31.7058C159.459 31.2826 160.038 31.0289 161.044 30.8937C162.072 30.7555 163.427 30.7539 165.333 30.7539V29.2539C163.469 29.2539 161.995 29.2523 160.844 29.407C159.672 29.5647 158.723 29.8968 157.975 30.6451L159.035 31.7058ZM158.906 31.846C158.947 31.798 158.99 31.7514 159.035 31.7058L157.975 30.6452C157.9 30.7201 157.828 30.7976 157.761 30.8781L158.906 31.846ZM157.632 31.7058C157.677 31.7514 157.72 31.7981 157.761 31.846L158.906 30.8781C158.839 30.7976 158.767 30.72 158.692 30.6452L157.632 31.7058ZM151.333 30.7539C153.24 30.7539 154.595 30.7555 155.623 30.8937C156.629 31.0289 157.208 31.2826 157.632 31.7058L158.692 30.6451C157.944 29.8968 156.995 29.5647 155.823 29.407C154.672 29.2523 153.198 29.2539 151.333 29.2539V30.7539ZM114.333 30.7539H151.333V29.2539H114.333V30.7539ZM101.207 32.8774C102.216 31.8684 103.56 31.3218 105.655 31.0401C107.772 30.7555 110.541 30.7539 114.333 30.7539V29.2539C110.583 29.2539 107.695 29.2523 105.455 29.5535C103.194 29.8576 101.48 30.4826 100.146 31.8167L101.207 32.8774Z" fill="#3C5D87"/><path d="M102.333 46.0039C102.333 40.3471 102.333 37.5186 104.091 35.7613C105.848 34.0039 108.677 34.0039 114.333 34.0039H150.333C154.105 34.0039 155.99 34.0039 157.162 35.1755C158.333 36.3471 158.333 38.2327 158.333 42.0039V98.0039C158.333 101.775 158.333 103.661 157.162 104.832C155.99 106.004 154.105 106.004 150.333 106.004H114.333C108.677 106.004 105.848 106.004 104.091 104.247C102.333 102.489 102.333 99.6608 102.333 94.0039V46.0039Z" fill="white" stroke="#3C5D87" stroke-width="1.5"/><path d="M158.333 42.0039C158.333 38.2327 158.333 36.3471 159.505 35.1755C160.677 34.0039 162.562 34.0039 166.333 34.0039H202.333C207.99 34.0039 210.819 34.0039 212.576 35.7613C214.333 37.5186 214.333 40.3471 214.333 46.0039V94.0039C214.333 99.6608 214.333 102.489 212.576 104.247C210.819 106.004 207.99 106.004 202.333 106.004H166.333C162.562 106.004 160.677 106.004 159.505 104.832C158.333 103.661 158.333 101.775 158.333 98.0039V42.0039Z" fill="white" stroke="#3C5D87" stroke-width="1.5"/><rect x="154.333" y="37.0039" width="8" height="3" rx="1" fill="#3C5D87"/><rect x="154.333" y="44.0039" width="8" height="3" rx="1" fill="#3C5D87"/><rect x="154.333" y="51.0039" width="8" height="3" rx="1" fill="#3C5D87"/><rect x="154.333" y="58.0039" width="8" height="3" rx="1" fill="#3C5D87"/><rect x="154.333" y="65.0039" width="8" height="3" rx="1" fill="#3C5D87"/><rect x="154.333" y="72.0039" width="8" height="3" rx="1" fill="#3C5D87"/><rect x="154.333" y="79.0039" width="8" height="3" rx="1" fill="#3C5D87"/><rect x="154.333" y="86.0039" width="8" height="3" rx="1" fill="#3C5D87"/><rect x="154.333" y="93.0039" width="8" height="3" rx="1" fill="#3C5D87"/><rect x="154.333" y="100.004" width="8" height="3" rx="1" fill="#3C5D87"/><path d="M111.833 45.5039H126.333" stroke="#E1E5EA" stroke-width="2" stroke-linecap="round"/><path d="M131.833 45.5039H146.333" stroke="#E1E5EA" stroke-width="2" stroke-linecap="round"/><path d="M111.833 50.5039H126.333" stroke="#E1E5EA" stroke-width="2" stroke-linecap="round"/><path d="M131.833 50.5039H146.333" stroke="#E1E5EA" stroke-width="2" stroke-linecap="round"/><path d="M111.833 55.5039H126.333" stroke="#E1E5EA" stroke-width="2" stroke-linecap="round"/><path d="M131.833 55.5039H146.333" stroke="#E1E5EA" stroke-width="2" stroke-linecap="round"/><path d="M111.833 60.5039H126.333" stroke="#E1E5EA" stroke-width="2" stroke-linecap="round"/><path d="M131.833 60.5039H146.333" stroke="#E1E5EA" stroke-width="2" stroke-linecap="round"/><path d="M111.833 65.5039H126.333" stroke="#E1E5EA" stroke-width="2" stroke-linecap="round"/><path d="M131.833 65.5039H146.333" stroke="#E1E5EA" stroke-width="2" stroke-linecap="round"/><path d="M111.833 70.5039H126.333" stroke="#E1E5EA" stroke-width="2" stroke-linecap="round"/><path d="M131.833 70.5039H146.333" stroke="#E1E5EA" stroke-width="2" stroke-linecap="round"/><path d="M111.833 75.5039H126.333" stroke="#E1E5EA" stroke-width="2" stroke-linecap="round"/><path d="M131.833 75.5039H146.333" stroke="#E1E5EA" stroke-width="2" stroke-linecap="round"/><path d="M111.833 80.5039H126.333" stroke="#E1E5EA" stroke-width="2" stroke-linecap="round"/><path d="M131.833 80.5039H146.333" stroke="#E1E5EA" stroke-width="2" stroke-linecap="round"/><path d="M111.833 85.5039H126.333" stroke="#E1E5EA" stroke-width="2" stroke-linecap="round"/><path d="M131.833 85.5039H146.333" stroke="#E1E5EA" stroke-width="2" stroke-linecap="round"/><path d="M111.833 90.5039H126.333" stroke="#E1E5EA" stroke-width="2" stroke-linecap="round"/><path d="M131.833 90.5039H146.333" stroke="#E1E5EA" stroke-width="2" stroke-linecap="round"/><path d="M111.833 95.5039H126.333" stroke="#E1E5EA" stroke-width="2" stroke-linecap="round"/><path d="M131.833 95.5039H146.333" stroke="#E1E5EA" stroke-width="2" stroke-linecap="round"/><path d="M170.333 45.5039H184.833" stroke="#E1E5EA" stroke-width="2" stroke-linecap="round"/><path d="M190.333 45.5039H204.833" stroke="#E1E5EA" stroke-width="2" stroke-linecap="round"/><path d="M170.333 50.5039H184.833" stroke="#E1E5EA" stroke-width="2" stroke-linecap="round"/><path d="M190.333 50.5039H204.833" stroke="#E1E5EA" stroke-width="2" stroke-linecap="round"/><path d="M170.333 55.5039H184.833" stroke="#E1E5EA" stroke-width="2" stroke-linecap="round"/><path d="M190.333 55.5039H204.833" stroke="#E1E5EA" stroke-width="2" stroke-linecap="round"/><path d="M170.333 60.5039H184.833" stroke="#E1E5EA" stroke-width="2" stroke-linecap="round"/><path d="M190.333 60.5039H204.833" stroke="#E1E5EA" stroke-width="2" stroke-linecap="round"/><path d="M170.333 65.5039H184.833" stroke="#E1E5EA" stroke-width="2" stroke-linecap="round"/><path d="M190.333 65.5039H204.833" stroke="#E1E5EA" stroke-width="2" stroke-linecap="round"/><path d="M170.333 70.5039H184.833" stroke="#E1E5EA" stroke-width="2" stroke-linecap="round"/><path d="M190.333 70.5039H204.833" stroke="#E1E5EA" stroke-width="2" stroke-linecap="round"/><path d="M170.333 75.5039H184.833" stroke="#E1E5EA" stroke-width="2" stroke-linecap="round"/><path d="M190.333 75.5039H204.833" stroke="#E1E5EA" stroke-width="2" stroke-linecap="round"/><path d="M170.333 80.5039H184.833" stroke="#E1E5EA" stroke-width="2" stroke-linecap="round"/><path d="M190.333 80.5039H204.833" stroke="#E1E5EA" stroke-width="2" stroke-linecap="round"/><path d="M170.333 85.5039H184.833" stroke="#E1E5EA" stroke-width="2" stroke-linecap="round"/><path d="M190.333 85.5039H204.833" stroke="#E1E5EA" stroke-width="2" stroke-linecap="round"/><path d="M170.333 90.5039H184.833" stroke="#E1E5EA" stroke-width="2" stroke-linecap="round"/><path d="M190.333 90.5039H204.833" stroke="#E1E5EA" stroke-width="2" stroke-linecap="round"/><path d="M170.333 95.5039H184.833" stroke="#E1E5EA" stroke-width="2" stroke-linecap="round"/><path d="M190.333 95.5039H204.833" stroke="#E1E5EA" stroke-width="2" stroke-linecap="round"/><path d="M202.487 51.5098H218.186V73.3043C218.186 74.5279 216.868 75.2986 215.802 74.6987L211.121 72.0656C210.634 71.7917 210.039 71.7917 209.552 72.0656L204.871 74.6987C203.805 75.2986 202.487 74.5279 202.487 73.3043V51.5098Z" fill="#FFD9AB" stroke="#3C5D87" stroke-width="1.5"/><path fill-rule="evenodd" clip-rule="evenodd" d="M190.337 42.6796C190.337 44.3362 191.67 45.6694 194.337 48.3358C194.776 48.7756 195.023 49.3721 195.023 49.994C195.023 53.7649 195.023 55.6503 196.195 56.8218C197.366 57.9932 199.252 57.9932 203.023 57.9932C203.644 57.9932 204.241 58.2402 204.681 58.6798C207.347 61.3462 208.68 62.6794 210.337 62.6794C211.994 62.6794 213.327 61.3462 215.993 58.6798C215.993 58.6798 215.993 58.6798 215.993 58.6798C215.993 58.6798 215.993 58.6798 215.993 58.6798L216.094 58.5793C216.469 58.204 216.978 57.9932 217.509 57.9932H217.651C221.422 57.9932 223.308 57.9932 224.479 56.8218C225.651 55.6503 225.651 53.7649 225.651 49.994C225.651 49.3722 225.898 48.7755 226.337 48.3358C229.004 45.6694 230.337 44.3362 230.337 42.6796C230.337 41.0229 229.004 39.6897 226.337 37.0233C225.898 36.5836 225.651 35.9872 225.651 35.3655C225.651 31.5946 225.651 29.7092 224.479 28.5377C223.308 27.3662 221.422 27.3662 217.651 27.3662C217.03 27.3662 216.433 27.119 215.993 26.6793C213.327 24.0129 211.994 22.6797 210.337 22.6797C208.68 22.6797 207.347 24.0129 204.681 26.6793C204.241 27.1189 203.644 27.3662 203.023 27.3662C199.252 27.3662 197.366 27.3662 196.195 28.5377C195.023 29.7092 195.023 31.5946 195.023 35.3655C195.023 35.9872 194.776 36.5837 194.337 37.0233C191.67 39.6897 190.337 41.0229 190.337 42.6796Z" fill="#FFD9AB"/><path d="M196.195 56.8218L196.725 56.2914H196.725L196.195 56.8218ZM224.479 28.5377L223.949 29.068V29.068L224.479 28.5377ZM196.195 28.5377L196.725 29.068L196.195 28.5377ZM215.993 26.6793L216.524 26.149V26.149L215.993 26.6793ZM226.337 37.0233L225.807 37.5536V37.5536L226.337 37.0233ZM226.337 48.3358L225.807 47.8055V47.8055L226.337 48.3358ZM215.993 58.6798L215.463 58.1495L215.993 58.6798ZM194.337 37.0233L194.867 37.5536L194.337 37.0233ZM215.993 58.6798L216.524 59.2102L215.993 58.6798ZM216.094 58.5793L216.624 59.1096L216.094 58.5793ZM204.681 58.6798L205.211 58.1495H205.211L204.681 58.6798ZM194.867 47.8055C193.519 46.4573 192.562 45.4984 191.933 44.6741C191.317 43.8671 191.087 43.278 191.087 42.6796H189.587C189.587 43.7378 190.023 44.6436 190.741 45.584C191.445 46.5071 192.488 47.548 193.806 48.8662L194.867 47.8055ZM196.725 56.2914C196.302 55.8683 196.048 55.2887 195.913 54.2827C195.775 53.2552 195.773 51.9006 195.773 49.994H194.273C194.273 51.8582 194.272 53.3319 194.426 54.4826C194.584 55.6549 194.916 56.6038 195.665 57.3521L196.725 56.2914ZM203.023 57.2432C201.116 57.2432 199.761 57.2416 198.734 57.1035C197.728 56.9682 197.148 56.7146 196.725 56.2914L195.665 57.3521C196.413 58.1004 197.362 58.4325 198.534 58.5901C199.685 58.7448 201.158 58.7432 203.023 58.7432V57.2432ZM210.337 61.9294C209.738 61.9294 209.149 61.6989 208.342 61.0832C207.518 60.4543 206.559 59.4977 205.211 58.1495L204.15 59.2101C205.468 60.5284 206.509 61.5715 207.432 62.2758C208.373 62.9933 209.279 63.4294 210.337 63.4294V61.9294ZM215.463 58.1495C214.115 59.4977 213.156 60.4544 212.331 61.0833C211.525 61.6989 210.935 61.9294 210.337 61.9294V63.4294C211.395 63.4294 212.301 62.9933 213.241 62.2758C214.164 61.5715 215.205 60.5284 216.524 59.2102L215.463 58.1495ZM215.563 58.0489L215.463 58.1495L216.524 59.2101L216.624 59.1096L215.563 58.0489ZM217.651 57.2432H217.509V58.7432H217.651V57.2432ZM223.949 56.2914C223.526 56.7146 222.946 56.9682 221.94 57.1035C220.913 57.2416 219.558 57.2432 217.651 57.2432V58.7432C219.516 58.7432 220.989 58.7448 222.14 58.5901C223.312 58.4325 224.261 58.1004 225.009 57.3521L223.949 56.2914ZM224.901 49.994C224.901 51.9006 224.899 53.2552 224.761 54.2827C224.626 55.2887 224.372 55.8683 223.949 56.2914L225.009 57.3521C225.758 56.6038 226.09 55.6549 226.247 54.4826C226.402 53.3319 226.401 51.8582 226.401 49.994H224.901ZM229.587 42.6796C229.587 43.278 229.356 43.8671 228.741 44.6741C228.112 45.4984 227.155 46.4573 225.807 47.8055L226.868 48.8662C228.186 47.548 229.229 46.5071 229.933 45.584C230.651 44.6436 231.087 43.7378 231.087 42.6796H229.587ZM225.807 37.5536C227.155 38.9018 228.112 39.8607 228.741 40.685C229.356 41.492 229.587 42.0811 229.587 42.6796H231.087C231.087 41.6213 230.651 40.7155 229.933 39.7751C229.229 38.852 228.186 37.8111 226.868 36.4929L225.807 37.5536ZM223.949 29.068C224.372 29.4912 224.626 30.0708 224.761 31.0767C224.899 32.1043 224.901 33.4588 224.901 35.3655H226.401C226.401 33.5012 226.402 32.0276 226.247 30.8769C226.09 29.7045 225.758 28.7557 225.009 28.0074L223.949 29.068ZM217.651 28.1162C219.558 28.1162 220.913 28.1178 221.94 28.256C222.946 28.3912 223.526 28.6449 223.949 29.068L225.009 28.0074C224.261 27.2591 223.312 26.927 222.14 26.7694C220.989 26.6146 219.516 26.6162 217.651 26.6162V28.1162ZM210.337 23.4297C210.935 23.4297 211.525 23.6602 212.332 24.2759C213.156 24.9048 214.115 25.8614 215.463 27.2096L216.524 26.149C215.205 24.8307 214.164 23.7876 213.241 23.0833C212.301 22.3658 211.395 21.9297 210.337 21.9297V23.4297ZM205.211 27.2096C206.559 25.8614 207.518 24.9048 208.342 24.2759C209.149 23.6602 209.738 23.4297 210.337 23.4297V21.9297C209.279 21.9297 208.373 22.3658 207.432 23.0833C206.509 23.7876 205.468 24.8308 204.15 26.149L205.211 27.2096ZM196.725 29.068C197.148 28.6449 197.728 28.3912 198.734 28.256C199.761 28.1178 201.116 28.1162 203.023 28.1162V26.6162C201.158 26.6162 199.685 26.6146 198.534 26.7694C197.362 26.927 196.413 27.2591 195.665 28.0074L196.725 29.068ZM195.773 35.3655C195.773 33.4588 195.775 32.1043 195.913 31.0767C196.048 30.0708 196.302 29.4912 196.725 29.068L195.665 28.0074C194.916 28.7557 194.584 29.7045 194.426 30.8769C194.272 32.0276 194.273 33.5012 194.273 35.3655H195.773ZM191.087 42.6796C191.087 42.0811 191.317 41.492 191.933 40.685C192.562 39.8607 193.519 38.9018 194.867 37.5536L193.806 36.4929C192.488 37.8111 191.445 38.852 190.741 39.7751C190.023 40.7155 189.587 41.6213 189.587 42.6796H191.087ZM204.15 26.149C203.851 26.4481 203.445 26.6162 203.023 26.6162V28.1162C203.843 28.1162 204.631 27.7898 205.211 27.2096L204.15 26.149ZM217.651 26.6162C217.229 26.6162 216.823 26.4481 216.524 26.149L215.463 27.2096C216.043 27.7899 216.831 28.1162 217.651 28.1162V26.6162ZM226.868 36.4929C226.569 36.1939 226.401 35.7883 226.401 35.3655H224.901C224.901 36.1862 225.227 36.9733 225.807 37.5536L226.868 36.4929ZM226.401 49.994C226.401 49.571 226.569 49.1651 226.868 48.8662L225.807 47.8055C225.227 48.3859 224.901 49.1734 224.901 49.994H226.401ZM216.593 59.1298C216.572 59.1582 216.549 59.185 216.524 59.2101L215.463 58.1495C215.438 58.1746 215.415 58.2015 215.393 58.2298L216.593 59.1298ZM194.273 35.3655C194.273 35.7881 194.105 36.1939 193.806 36.4929L194.867 37.5536C195.447 36.9734 195.773 36.1862 195.773 35.3655H194.273ZM216.524 59.2102C216.548 59.1857 216.571 59.1589 216.593 59.1298L215.393 58.2298C215.415 58.2008 215.438 58.174 215.463 58.1495L216.524 59.2102ZM216.624 59.1096C216.859 58.875 217.177 58.7432 217.509 58.7432V57.2432C216.779 57.2432 216.079 57.533 215.563 58.0489L216.624 59.1096ZM203.023 58.7432C203.446 58.7432 203.851 58.9113 204.15 59.2101L205.211 58.1495C204.631 57.5691 203.843 57.2432 203.023 57.2432V58.7432ZM193.806 48.8662C194.105 49.1653 194.273 49.571 194.273 49.994H195.773C195.773 49.1732 195.447 48.3859 194.867 47.8055L193.806 48.8662Z" fill="#3C5D87"/><ellipse cx="210.337" cy="42.6775" rx="12.7557" ry="12.7556" stroke="white" stroke-width="1.5"/><path opacity="0.14" d="M224.122 55.2949C216.312 63.1054 203.807 63.2637 196.191 55.6484" stroke="#3C5D87" stroke-width="7.5" stroke-linecap="round"/><path fill-rule="evenodd" clip-rule="evenodd" d="M216.576 37.5963C216.079 37.1334 215.298 37.1733 214.852 37.6843L208.377 45.0923L206.157 42.7043C205.7 42.2122 204.92 42.2116 204.462 42.7031C204.005 43.193 204.058 43.9671 204.577 44.3903L207.695 46.9313C208.116 47.2748 208.729 47.2428 209.112 46.8574L216.608 39.322C217.087 38.8409 217.072 38.0591 216.576 37.5963Z" fill="#3C5D87"/><rect opacity="0.12" x="108.834" y="102.945" width="38.7028" height="6" rx="2" fill="#3C5D87"/><rect opacity="0.12" x="167.834" y="102.945" width="39.7028" height="6" rx="2" fill="#3C5D87"/><rect opacity="0.12" x="151.74" y="39.5508" width="12.8816" height="59.3199" rx="4" fill="#3C5D87"/></g><defs><clipPath id="clip0_4342_107366"><rect width="200" height="120" fill="white" transform="translate(58.3333 6.00586)"/></clipPath></defs></svg>