<svg width="117" height="119" viewBox="0 0 117 119" fill="none" xmlns="http://www.w3.org/2000/svg"><line x1="10" y1="118" x2="94" y2="118" stroke="#3C5D87" stroke-width="2" stroke-linecap="round"/><line x1="1" y1="118" x2="4" y2="118" stroke="#3C5D87" stroke-width="2" stroke-linecap="round"/><line x1="101" y1="118" x2="103" y2="118" stroke="#3C5D87" stroke-width="2" stroke-linecap="round"/><path d="M21 1V10.3333" stroke="#FFD9AB" stroke-width="2" stroke-linecap="round"/><path d="M9.68604 5.68359L16.2857 12.2833" stroke="#FFD9AB" stroke-width="2" stroke-linecap="round"/><path d="M14.3333 17L4.99998 17" stroke="#FFD9AB" stroke-width="2" stroke-linecap="round"/><path d="M20 28C20 22.3431 20 19.5147 21.7574 17.7574C23.5147 16 26.3431 16 32 16H72C77.6569 16 80.4853 16 82.2426 17.7574C84 19.5147 84 22.3431 84 28V84C84 89.6569 84 92.4853 82.2426 94.2426C80.4853 96 77.6569 96 72 96H32C26.3431 96 23.5147 96 21.7574 94.2426C20 92.4853 20 89.6569 20 84V28Z" fill="#FFD9AB" stroke="#3C5D87" stroke-width="1.6"/><path d="M26 28C26 24.2288 26 22.3431 27.1716 21.1716C28.3431 20 30.2288 20 34 20H70C73.7712 20 75.6569 20 76.8284 21.1716C78 22.3431 78 24.2288 78 28V82C78 85.7712 78 87.6569 76.8284 88.8284C75.6569 90 73.7712 90 70 90H34C30.2288 90 28.3431 90 27.1716 88.8284C26 87.6569 26 85.7712 26 82V28Z" fill="white" stroke="#3C5D87" stroke-width="1.6"/><path fill-rule="evenodd" clip-rule="evenodd" d="M52 1C48.134 1 45 4.13401 45 8C45 9.14537 45.2751 10.2265 45.7628 11.1809C45.9603 11.5673 46.059 11.7605 45.9869 11.8797C45.9149 11.9988 45.7092 12.001 45.2978 12.0054C43.5843 12.0236 42.556 12.1038 41.7039 12.4567C40.2337 13.0657 39.0657 14.2337 38.4567 15.7039C38 16.8065 38 18.2044 38 21C38 21.9319 38 22.3978 38.1522 22.7654C38.3552 23.2554 38.7446 23.6448 39.2346 23.8478C39.6022 24 40.0681 24 41 24H63C63.9319 24 64.3978 24 64.7654 23.8478C65.2554 23.6448 65.6448 23.2554 65.8478 22.7654C66 22.3978 66 21.9319 66 21C66 18.2044 66 16.8065 65.5433 15.7039C64.9343 14.2337 63.7663 13.0657 62.2961 12.4567C61.444 12.1038 60.4157 12.0236 58.7022 12.0054C58.2908 12.001 58.0851 11.9988 58.0131 11.8797C57.941 11.7605 58.0397 11.5673 58.2372 11.1809C58.7249 10.2265 59 9.14537 59 8C59 4.13401 55.866 1 52 1Z" fill="white"/><path fill-rule="evenodd" clip-rule="evenodd" d="M52 1C48.134 1 45 4.13401 45 8C45 9.14537 45.2751 10.2265 45.7628 11.1809C45.9603 11.5673 46.059 11.7605 45.9869 11.8797C45.9149 11.9988 45.7092 12.001 45.2978 12.0054C43.5843 12.0236 42.556 12.1038 41.7039 12.4567C40.2337 13.0657 39.0657 14.2337 38.4567 15.7039C38 16.8065 38 18.2044 38 21C38 21.9319 38 22.3978 38.1522 22.7654C38.3552 23.2554 38.7446 23.6448 39.2346 23.8478C39.6022 24 40.0681 24 41 24H63C63.9319 24 64.3978 24 64.7654 23.8478C65.2554 23.6448 65.6448 23.2554 65.8478 22.7654C66 22.3978 66 21.9319 66 21C66 18.2044 66 16.8065 65.5433 15.7039C64.9343 14.2337 63.7663 13.0657 62.2961 12.4567C61.444 12.1038 60.4157 12.0236 58.7022 12.0054C58.2908 12.001 58.0851 11.9988 58.0131 11.8797C57.941 11.7605 58.0397 11.5673 58.2372 11.1809C58.7249 10.2265 59 9.14537 59 8C59 4.13401 55.866 1 52 1Z" fill="#3C5D87" fill-opacity="0.18"/><path d="M41.7039 12.4567L41.3978 11.7176L41.7039 12.4567ZM38.4567 15.7039L37.7176 15.3978H37.7176L38.4567 15.7039ZM38.1522 22.7654L38.8913 22.4592H38.8913L38.1522 22.7654ZM39.2346 23.8478L38.9285 24.5869H38.9285L39.2346 23.8478ZM64.7654 23.8478L65.0715 24.5869L64.7654 23.8478ZM65.8478 22.7654L65.1087 22.4592L65.8478 22.7654ZM65.5433 15.7039L66.2824 15.3978V15.3978L65.5433 15.7039ZM62.2961 12.4567L61.99 13.1958L62.2961 12.4567ZM58.7022 12.0054L58.6937 12.8053L58.7022 12.0054ZM58.2372 11.1809L58.9496 11.5449L58.2372 11.1809ZM58.0131 11.8797L57.3285 12.2936L58.0131 11.8797ZM45.2978 12.0054L45.2893 11.2054L45.2978 12.0054ZM45.9869 11.8797L46.6715 12.2936L45.9869 11.8797ZM45.8 8C45.8 4.57583 48.5758 1.8 52 1.8V0.2C47.6922 0.2 44.2 3.69218 44.2 8H45.8ZM46.4752 10.8169C46.0437 9.97255 45.8 9.0159 45.8 8H44.2C44.2 9.27485 44.5065 10.4804 45.0504 11.5449L46.4752 10.8169ZM42.01 13.1958C42.7 12.91 43.5791 12.8237 45.3063 12.8053L45.2893 11.2054C43.5895 11.2235 42.4119 11.2975 41.3978 11.7176L42.01 13.1958ZM39.1958 16.01C39.7236 14.7359 40.7359 13.7236 42.01 13.1958L41.3978 11.7176C39.7316 12.4078 38.4078 13.7316 37.7176 15.3978L39.1958 16.01ZM38.8 21C38.8 19.5912 38.8004 18.5747 38.8552 17.7715C38.9095 16.9755 39.0146 16.4476 39.1958 16.01L37.7176 15.3978C37.4422 16.0628 37.3188 16.7851 37.2589 17.6626C37.1996 18.5329 37.2 19.6131 37.2 21H38.8ZM38.8913 22.4592C38.8623 22.3892 38.8334 22.278 38.8172 22.0399C38.8004 21.7945 38.8 21.4769 38.8 21H37.2C37.2 21.455 37.1996 21.8363 37.2209 22.1488C37.2427 22.4684 37.2899 22.774 37.4131 23.0715L38.8913 22.4592ZM39.5408 23.1087C39.2467 22.9869 39.0131 22.7533 38.8913 22.4592L37.4131 23.0715C37.6973 23.7576 38.2424 24.3027 38.9285 24.5869L39.5408 23.1087ZM41 23.2C40.5231 23.2 40.2055 23.1996 39.9601 23.1828C39.722 23.1666 39.6108 23.1377 39.5408 23.1087L38.9285 24.5869C39.226 24.7101 39.5316 24.7573 39.8512 24.7791C40.1637 24.8004 40.545 24.8 41 24.8V23.2ZM63 23.2H41V24.8H63V23.2ZM64.4592 23.1087C64.3892 23.1377 64.278 23.1666 64.0399 23.1828C63.7945 23.1996 63.4769 23.2 63 23.2V24.8C63.455 24.8 63.8363 24.8004 64.1488 24.7791C64.4684 24.7573 64.774 24.7101 65.0715 24.5869L64.4592 23.1087ZM65.1087 22.4592C64.9869 22.7533 64.7533 22.9869 64.4592 23.1087L65.0715 24.5869C65.7576 24.3027 66.3027 23.7576 66.5869 23.0715L65.1087 22.4592ZM65.2 21C65.2 21.4769 65.1996 21.7945 65.1828 22.0399C65.1666 22.278 65.1377 22.3892 65.1087 22.4592L66.5869 23.0715C66.7101 22.774 66.7573 22.4684 66.7791 22.1488C66.8004 21.8363 66.8 21.455 66.8 21H65.2ZM64.8042 16.01C64.9854 16.4476 65.0905 16.9755 65.1448 17.7715C65.1996 18.5747 65.2 19.5912 65.2 21H66.8C66.8 19.6131 66.8004 18.5329 66.7411 17.6626C66.6812 16.7851 66.5578 16.0628 66.2824 15.3978L64.8042 16.01ZM61.99 13.1958C63.2641 13.7236 64.2764 14.7359 64.8042 16.01L66.2824 15.3978C65.5922 13.7316 64.2684 12.4078 62.6022 11.7176L61.99 13.1958ZM58.6937 12.8053C60.4209 12.8237 61.3 12.91 61.99 13.1958L62.6022 11.7176C61.5881 11.2975 60.4105 11.2235 58.7107 11.2054L58.6937 12.8053ZM58.2 8C58.2 9.0159 57.9563 9.97255 57.5248 10.8169L58.9496 11.5449C59.4935 10.4804 59.8 9.27485 59.8 8H58.2ZM52 1.8C55.4242 1.8 58.2 4.57583 58.2 8H59.8C59.8 3.69218 56.3078 0.2 52 0.2V1.8ZM58.7107 11.2054C58.605 11.2043 58.5254 11.2034 58.4585 11.2011C58.3903 11.1988 58.3572 11.1955 58.3436 11.1936C58.3264 11.1911 58.3698 11.1946 58.4366 11.2263C58.4733 11.2438 58.52 11.2711 58.5684 11.3128C58.618 11.3554 58.6621 11.407 58.6976 11.4657L57.3285 12.2936C57.5617 12.6792 57.9564 12.7545 58.1172 12.7775C58.294 12.8028 58.5123 12.8034 58.6937 12.8053L58.7107 11.2054ZM57.5248 10.8169C57.4367 10.9894 57.3335 11.1879 57.2718 11.3582C57.22 11.5014 57.0895 11.8983 57.3285 12.2936L58.6976 11.4657C58.7356 11.5285 58.7612 11.5951 58.7755 11.6605C58.7894 11.7243 58.7909 11.7786 58.7888 11.8177C58.785 11.888 58.7686 11.9242 58.7763 11.9028C58.7826 11.8855 58.7973 11.8501 58.8291 11.7843C58.8603 11.7198 58.899 11.644 58.9496 11.5449L57.5248 10.8169ZM45.0504 11.5449C45.101 11.644 45.1397 11.7198 45.1709 11.7843C45.2027 11.8501 45.2174 11.8855 45.2237 11.9028C45.2314 11.9242 45.215 11.888 45.2112 11.8177C45.2091 11.7786 45.2106 11.7243 45.2245 11.6605C45.2388 11.5951 45.2644 11.5285 45.3024 11.4657L46.6715 12.2936C46.9105 11.8983 46.78 11.5014 46.7282 11.3582C46.6665 11.1879 46.5633 10.9894 46.4752 10.8169L45.0504 11.5449ZM45.3063 12.8053C45.4877 12.8034 45.706 12.8028 45.8828 12.7775C46.0436 12.7545 46.4383 12.6792 46.6715 12.2936L45.3024 11.4657C45.3379 11.407 45.382 11.3554 45.4316 11.3128C45.48 11.2711 45.5267 11.2438 45.5634 11.2263C45.6302 11.1946 45.6736 11.1911 45.6564 11.1936C45.6428 11.1955 45.6097 11.1988 45.5415 11.2011C45.4746 11.2034 45.395 11.2043 45.2893 11.2054L45.3063 12.8053Z" fill="#3C5D87"/><path d="M49.8 8C49.8 6.78497 50.785 5.8 52 5.8C53.215 5.8 54.2 6.78497 54.2 8C54.2 9.21503 53.215 10.2 52 10.2C50.785 10.2 49.8 9.21503 49.8 8Z" fill="white"/><path d="M49.8 8C49.8 6.78497 50.785 5.8 52 5.8C53.215 5.8 54.2 6.78497 54.2 8C54.2 9.21503 53.215 10.2 52 10.2C50.785 10.2 49.8 9.21503 49.8 8Z" fill="#3C5D87" fill-opacity="0.5"/><path d="M49.8 8C49.8 6.78497 50.785 5.8 52 5.8C53.215 5.8 54.2 6.78497 54.2 8C54.2 9.21503 53.215 10.2 52 10.2C50.785 10.2 49.8 9.21503 49.8 8Z" stroke="#3C5D87" stroke-width="1.6"/><line x1="43" y1="17" x2="53" y2="17" stroke="white" stroke-width="2" stroke-linecap="round"/><path d="M34 36C34 34.1144 34 33.1716 34.5858 32.5858C34.5858 32.5858 34.5858 32.5858 34.5858 32.5858C35.1716 32 36.1144 32 38 32C39.8856 32 40.8284 32 41.4142 32.5858C41.4142 32.5858 41.4142 32.5858 41.4142 32.5858C42 33.1716 42 34.1144 42 36C42 37.8856 42 38.8284 41.4142 39.4142C40.8284 40 39.8856 40 38 40C36.1144 40 35.1716 40 34.5858 39.4142C34.5858 39.4142 34.5858 39.4142 34.5858 39.4142C34 38.8284 34 37.8856 34 36Z" fill="white" stroke="#FFD9AB" stroke-width="1.5"/><line x1="47.875" y1="33.875" x2="69.125" y2="33.875" stroke="#FFD9AB" stroke-width="1.75" stroke-linecap="round"/><line x1="47.875" y1="37.875" x2="60.125" y2="37.875" stroke="#FFD9AB" stroke-width="1.75" stroke-linecap="round"/><path d="M34 50C34 48.1144 34 47.1716 34.5858 46.5858C34.5858 46.5858 34.5858 46.5858 34.5858 46.5858C35.1716 46 36.1144 46 38 46C39.8856 46 40.8284 46 41.4142 46.5858C41.4142 46.5858 41.4142 46.5858 41.4142 46.5858C42 47.1716 42 48.1144 42 50C42 51.8856 42 52.8284 41.4142 53.4142C40.8284 54 39.8856 54 38 54C36.1144 54 35.1716 54 34.5858 53.4142C34.5858 53.4142 34.5858 53.4142 34.5858 53.4142C34 52.8284 34 51.8856 34 50Z" fill="white" stroke="#FFD9AB" stroke-width="1.5"/><line x1="47.875" y1="47.875" x2="69.125" y2="47.875" stroke="#FFD9AB" stroke-width="1.75" stroke-linecap="round"/><line x1="47.875" y1="51.875" x2="60.125" y2="51.875" stroke="#FFD9AB" stroke-width="1.75" stroke-linecap="round"/><path d="M34 64C34 62.1144 34 61.1716 34.5858 60.5858C34.5858 60.5858 34.5858 60.5858 34.5858 60.5858C35.1716 60 36.1144 60 38 60C39.8856 60 40.8284 60 41.4142 60.5858C41.4142 60.5858 41.4142 60.5858 41.4142 60.5858C42 61.1716 42 62.1144 42 64C42 65.8856 42 66.8284 41.4142 67.4142C40.8284 68 39.8856 68 38 68C36.1144 68 35.1716 68 34.5858 67.4142C34.5858 67.4142 34.5858 67.4142 34.5858 67.4142C34 66.8284 34 65.8856 34 64Z" fill="white" stroke="#FFD9AB" stroke-width="1.5"/><line x1="47.875" y1="61.875" x2="69.125" y2="61.875" stroke="#FFD9AB" stroke-width="1.75" stroke-linecap="round"/><line x1="47.875" y1="65.875" x2="60.125" y2="65.875" stroke="#FFD9AB" stroke-width="1.75" stroke-linecap="round"/><path d="M34 78C34 76.1144 34 75.1716 34.5858 74.5858C34.5858 74.5858 34.5858 74.5858 34.5858 74.5858C35.1716 74 36.1144 74 38 74C39.8856 74 40.8284 74 41.4142 74.5858C41.4142 74.5858 41.4142 74.5858 41.4142 74.5858C42 75.1716 42 76.1144 42 78C42 79.8856 42 80.8284 41.4142 81.4142C40.8284 82 39.8856 82 38 82C36.1144 82 35.1716 82 34.5858 81.4142C34.5858 81.4142 34.5858 81.4142 34.5858 81.4142C34 80.8284 34 79.8856 34 78Z" fill="white" stroke="#FFD9AB" stroke-width="1.5"/><line x1="47.875" y1="75.875" x2="69.125" y2="75.875" stroke="#FFD9AB" stroke-width="1.75" stroke-linecap="round"/><line x1="47.875" y1="79.875" x2="60.125" y2="79.875" stroke="#FFD9AB" stroke-width="1.75" stroke-linecap="round"/><line x1="57" y1="17" x2="60" y2="17" stroke="white" stroke-width="2" stroke-linecap="round"/><rect opacity="0.15" x="25" y="93.75" width="54" height="7.33333" rx="3.66667" fill="#3C5D87"/><rect opacity="0.15" x="31" y="86.75" width="48" height="5.33333" rx="2" fill="#3C5D87"/><rect opacity="0.15" x="42" y="20.75" width="24" height="6.33333" rx="2" fill="#3C5D87"/><rect x="100.379" y="64.6055" width="9.59781" height="41.4923" transform="rotate(45 100.379 64.6055)" fill="white"/><rect x="100.379" y="64.6055" width="9.59781" height="41.4923" transform="rotate(45 100.379 64.6055)" fill="#FFC800" fill-opacity="0.4"/><rect x="100.379" y="64.6055" width="9.59781" height="41.4923" transform="rotate(45 100.379 64.6055)" stroke="#3C5D87" stroke-width="1.6" stroke-linejoin="round"/><rect opacity="0.15" x="85.1426" y="73.7188" width="6.98023" height="29.0892" rx="3" transform="rotate(45 85.1426 73.7188)" fill="#3C5D87"/><rect width="9.59781" height="4.79891" transform="matrix(0.707107 0.707107 0.707107 -0.707107 67.644 97.3398)" fill="white" stroke="#3C5D87" stroke-width="1.6" stroke-linejoin="round"/><path d="M65.948 99.0324C64.0739 100.907 64.0739 103.945 65.948 105.819C67.8221 107.693 70.8606 107.693 72.7347 105.819L74.4314 104.122L67.6447 97.3358L65.948 99.0324Z" fill="#FFD9AB" stroke="#3C5D87" stroke-width="1.6" stroke-linejoin="round"/><path d="M103.773 68L74.4332 97.3395" stroke="#3C5D87" stroke-width="1.6"/><path d="M110.829 59.608C111.681 59.201 112.57 60.0905 112.163 60.9416L107.164 71.3933L100.378 64.6066L110.829 59.608Z" fill="#FFD9AB" stroke="#3C5D87" stroke-width="1.6" stroke-linejoin="round"/><path d="M110.703 59.7254C111.562 59.2956 112.474 60.2075 112.044 61.067L110.829 63.4969L108.273 60.9403L110.703 59.7254Z" fill="#3C5D87"/></svg>