<svg width="516" height="225" viewBox="0 0 516 225" fill="none" xmlns="http://www.w3.org/2000/svg"><rect width="500" height="224.138" transform="translate(16)" fill="white"/><rect opacity="0.08" x="201.481" y="5.4541" width="171.715" height="171.715" rx="25.8039" transform="rotate(23.516 201.481 5.4541)" fill="#FF9600"/><rect opacity="0.08" x="368.214" y="77.0107" width="98.6377" height="98.6377" rx="17.7357" transform="rotate(-20.6759 368.214 77.0107)" fill="#FF9600"/><rect opacity="0.08" x="34.8472" y="93.4131" width="78.9601" height="78.9601" rx="14.3929" transform="rotate(-20.206 34.8472 93.4131)" fill="#FF9600"/><rect opacity="0.1" x="471.964" y="17.2412" width="10.9642" height="10.9642" rx="3.67269" transform="rotate(38.5077 471.964 17.2412)" fill="#FF9600"/><rect opacity="0.1" x="168.152" y="7.75879" width="10.9642" height="10.9642" rx="3.67269" transform="rotate(79.2683 168.152 7.75879)" fill="#FF9600"/><rect opacity="0.1" x="505.271" y="0.862305" width="10.9642" height="10.9642" rx="3.67269" transform="rotate(80.8166 505.271 0.862305)" fill="#FF9600"/><rect opacity="0.1" x="310.334" width="19.5849" height="19.5849" rx="3.67269" transform="rotate(80.8166 310.334 0)" fill="#FF9600"/><rect opacity="0.1" x="33.5479" y="150" width="17.6732" height="17.6732" rx="4.26286" transform="rotate(24.0509 33.5479 150)" fill="#FF9600"/><g opacity="0.6"><g opacity="0.7"><path d="M32.3794 190.173H502.207" stroke="#FFD9AB" stroke-width="1.2931" stroke-linecap="round"/><path d="M36.6899 172.931H495.311" stroke="#FFD9AB" stroke-width="1.2931" stroke-linecap="round"/><path d="M41.8623 155.689H490.138" stroke="#FFD9AB" stroke-width="1.2931" stroke-linecap="round"/><path d="M34.1035 138.448H495.31" stroke="#FFD9AB" stroke-width="1.2931" stroke-linecap="round"/><path d="M38.4141 121.207H500.483" stroke="#FFD9AB" stroke-width="1.2931" stroke-linecap="round"/><path d="M45.3105 103.966H486.69" stroke="#FFD9AB" stroke-width="1.2931" stroke-linecap="round"/><path d="M36.6899 86.7246H495.311" stroke="#FFD9AB" stroke-width="1.2931" stroke-linecap="round"/><path d="M28.9312 69.4824H498.759" stroke="#FFD9AB" stroke-width="1.2931" stroke-linecap="round"/><path d="M34.1035 52.2412H495.31" stroke="#FFD9AB" stroke-width="1.2931" stroke-linecap="round"/><path d="M56.6899 35H477.035" stroke="#FFD9AB" stroke-width="1.2931" stroke-linecap="round"/><path d="M74.9658 17.7588H457.897" stroke="#FFD9AB" stroke-width="1.2931" stroke-linecap="round"/></g><path d="M505.655 53.8789L459.103 72.8444L397.465 34.9134L331.517 78.0168L271.603 28.4479L199.621 48.2755L133.241 16.3789L73.7585 53.8789L26.3447 73.7065" stroke="#FFD9AB" stroke-width="1.72414" stroke-linecap="round"/><circle cx="133.241" cy="16.3794" r="5.17241" fill="#FFFAED" stroke="#FFD9AB" stroke-width="1.72414"/><circle cx="73.7584" cy="53.4488" r="5.17241" fill="#FFFAED" stroke="#FFD9AB" stroke-width="1.72414"/><circle cx="199.621" cy="47.4136" r="5.17241" fill="#FFFAED" stroke="#FFD9AB" stroke-width="1.72414"/><circle cx="271.172" cy="28.4488" r="5.17241" fill="#FFFAED" stroke="#FFD9AB" stroke-width="1.72414"/><circle cx="331.517" cy="77.5865" r="5.17241" fill="#FFFAED" stroke="#FFD9AB" stroke-width="1.72414"/><circle cx="397.896" cy="34.483" r="5.17241" fill="#FFFAED" stroke="#FFD9AB" stroke-width="1.72414"/><circle cx="459.103" cy="72.4136" r="5.17241" fill="#FFFAED" stroke="#FFD9AB" stroke-width="1.72414"/></g><path opacity="0.05" d="M71.1729 197.414C71.1729 192.538 71.1729 190.099 72.6878 188.584C74.2028 187.069 76.6411 187.069 81.5177 187.069H450.483C455.36 187.069 457.798 187.069 459.313 188.584C460.828 190.099 460.828 192.538 460.828 197.414V213.793C460.828 218.67 460.828 221.108 459.313 222.623C457.798 224.138 455.36 224.138 450.483 224.138H81.5177C76.6411 224.138 74.2028 224.138 72.6878 222.623C71.1729 221.108 71.1729 218.67 71.1729 213.793V197.414Z" fill="#083156"/><path d="M50.4829 187.069C50.4829 183.818 50.4829 182.193 51.4929 181.183C51.4929 181.183 51.4929 181.183 51.4929 181.183C52.5029 180.173 54.1284 180.173 57.3795 180.173H474.621C477.872 180.173 479.497 180.173 480.507 181.183C480.507 181.183 480.507 181.183 480.507 181.183C481.517 182.193 481.517 183.818 481.517 187.069C481.517 190.32 481.517 191.946 480.507 192.956C480.507 192.956 480.507 192.956 480.507 192.956C479.497 193.966 477.872 193.966 474.621 193.966H57.3795C54.1284 193.966 52.5029 193.966 51.4929 192.956C51.4929 192.956 51.4929 192.956 51.4929 192.956C50.4829 191.946 50.4829 190.32 50.4829 187.069Z" fill="#D9C6B3"/><path d="M480.655 181.897H55.6553C54.0298 181.897 53.217 181.897 52.712 182.402C52.207 182.907 52.207 183.72 52.207 185.346V192.242" stroke="white" stroke-width="1.5"/><path d="M50.4829 187.069C50.4829 183.818 50.4829 182.193 51.4929 181.183C51.4929 181.183 51.4929 181.183 51.4929 181.183C52.5029 180.173 54.1284 180.173 57.3795 180.173H474.621C477.872 180.173 479.497 180.173 480.507 181.183C480.507 181.183 480.507 181.183 480.507 181.183C481.517 182.193 481.517 183.818 481.517 187.069V187.069C481.517 190.32 481.517 191.946 480.507 192.956C480.507 192.956 480.507 192.956 480.507 192.956C479.497 193.966 477.872 193.966 474.621 193.966H57.3795C54.1284 193.966 52.5029 193.966 51.4929 192.956C51.4929 192.956 51.4929 192.956 51.4929 192.956C50.4829 191.946 50.4829 190.32 50.4829 187.069V187.069Z" stroke="#083156" stroke-width="1.5"/><path opacity="0.1" d="M106.518 193.966C106.518 190.715 106.518 189.089 107.528 188.079C108.538 187.069 110.163 187.069 113.414 187.069H442.724C445.976 187.069 447.601 187.069 448.611 188.079C449.621 189.089 449.621 190.715 449.621 193.966V197.414C449.621 200.665 449.621 202.291 448.611 203.301C447.601 204.311 445.976 204.311 442.724 204.311H113.414C110.163 204.311 108.538 204.311 107.528 203.301C106.518 202.291 106.518 200.665 106.518 197.414V193.966Z" fill="#083156"/><path d="M247.896 90.5177C247.896 85.6411 247.896 83.2028 249.411 81.6878C250.926 80.1729 253.365 80.1729 258.241 80.1729H259.965C264.842 80.1729 267.28 80.1729 268.795 81.6878C270.31 83.2028 270.31 85.6411 270.31 90.5177V180.173H247.896V90.5177Z" fill="#FFE999"/><path d="M268.586 81.8975H256.517C253.266 81.8975 251.641 81.8975 250.631 82.9074C249.621 83.9174 249.621 85.5429 249.621 88.794V180.173" stroke="white" stroke-width="1.5" stroke-linecap="round"/><path opacity="0.24" d="M247.896 95.6904H269.879" stroke="#A65D14" stroke-width="1.5" stroke-linecap="round"/><path opacity="0.08" d="M247.896 97.4141H270.741" stroke="#A65D14" stroke-width="1.5"/><path opacity="0.08" d="M247.896 114.655H270.741" stroke="#A65D14" stroke-width="1.5"/><path opacity="0.08" d="M247.896 131.897H270.741" stroke="#A65D14" stroke-width="1.5"/><path opacity="0.08" d="M247.896 149.139H270.741" stroke="#A65D14" stroke-width="1.5"/><path opacity="0.08" d="M247.896 166.38H270.741" stroke="#A65D14" stroke-width="1.5"/><path opacity="0.24" d="M247.896 112.932H269.879" stroke="#A65D14" stroke-width="1.5" stroke-linecap="round"/><path opacity="0.24" d="M247.896 130.173H269.879" stroke="#A65D14" stroke-width="1.5" stroke-linecap="round"/><path opacity="0.24" d="M247.896 147.414H269.879" stroke="#A65D14" stroke-width="1.5" stroke-linecap="round"/><path opacity="0.24" d="M247.896 164.655H269.879" stroke="#A65D14" stroke-width="1.5" stroke-linecap="round"/><path d="M247.896 90.5177C247.896 85.6411 247.896 83.2028 249.411 81.6878C250.926 80.1729 253.365 80.1729 258.241 80.1729H259.965C264.842 80.1729 267.28 80.1729 268.795 81.6878C270.31 83.2028 270.31 85.6411 270.31 90.5177V180.173H247.896V90.5177Z" stroke="#083156" stroke-width="1.5"/><path opacity="0.08" d="M264.276 84.0524C264.276 82.386 265.627 81.0352 267.293 81.0352C268.959 81.0352 270.31 82.386 270.31 84.0524V180.173H264.276V84.0524Z" fill="#083156"/><path d="M138.414 99.1378C138.414 94.2612 138.414 91.8229 139.929 90.3079C141.444 88.793 143.882 88.793 148.758 88.793H155.655C160.532 88.793 162.97 88.793 164.485 90.3079C166 91.8229 166 94.2612 166 99.1378V180.172H138.414V99.1378Z" fill="#FFD9AB"/><path d="M138.414 107.759H166V138.793H138.414V107.759Z" fill="#FEF6F0"/><path opacity="0.2" d="M146.172 164.655C146.172 161.404 146.172 159.779 147.182 158.769C148.192 157.759 149.818 157.759 153.069 157.759H159.103C162.354 157.759 163.98 157.759 164.99 158.769C166 159.779 166 161.404 166 164.655V180.173H146.172V164.655Z" fill="#FA811B"/><path d="M164.276 90.5176H147.034C143.783 90.5176 142.158 90.5176 141.148 91.5276C140.138 92.5375 140.138 94.1631 140.138 97.4141V180.173" stroke="white" stroke-width="1.5" stroke-linecap="round"/><path d="M138.414 99.1378C138.414 94.2612 138.414 91.8229 139.929 90.3079C141.444 88.793 143.882 88.793 148.758 88.793H155.655C160.532 88.793 162.97 88.793 164.485 90.3079C166 91.8229 166 94.2612 166 99.1378V180.172H138.414V99.1378Z" stroke="#083156" stroke-width="1.5"/><path opacity="0.08" d="M157.379 99.1385C157.379 97.1066 157.379 96.0906 158.01 95.4594C158.641 94.8281 159.657 94.8281 161.689 94.8281C163.721 94.8281 164.737 94.8281 165.368 95.4594C166 96.0906 166 97.1066 166 99.1385V180.173H157.379V99.1385Z" fill="#083156"/><path opacity="0.08" d="M138.414 92.2412C138.414 91.0342 138.414 90.4307 138.648 89.9697C138.855 89.5642 139.185 89.2345 139.59 89.0279C140.051 88.793 140.655 88.793 141.862 88.793C143.069 88.793 143.672 88.793 144.133 89.0279C144.539 89.2345 144.869 89.5642 145.075 89.9697C145.31 90.4307 145.31 91.0342 145.31 92.2412V180.172H138.414V92.2412Z" fill="#083156"/><path d="M228.931 106.897C228.931 102.853 228.931 100.831 230 99.4377C230.275 99.0791 230.596 98.7581 230.955 98.4829C232.348 97.4141 234.37 97.4141 238.414 97.4141C242.458 97.4141 244.48 97.4141 245.873 98.4829C246.232 98.7581 246.553 99.0791 246.828 99.4377C247.897 100.831 247.897 102.853 247.897 106.897V180.173H228.931V106.897Z" fill="#1CB0F6"/><path d="M228.931 106.897C228.931 102.853 228.931 100.831 230 99.4377C230.275 99.0791 230.596 98.7581 230.955 98.4829C232.348 97.4141 234.37 97.4141 238.414 97.4141C242.458 97.4141 244.48 97.4141 245.873 98.4829C246.232 98.7581 246.553 99.0791 246.828 99.4377C247.897 100.831 247.897 102.853 247.897 106.897V180.173H228.931V106.897Z" fill="#3C5D87" fill-opacity="0.8"/><path opacity="0.2" d="M236.69 163.362C236.69 161.35 236.69 160.343 237.097 159.582C237.419 158.98 237.911 158.487 238.513 158.166C239.274 157.759 240.281 157.759 242.293 157.759C244.306 157.759 245.312 157.759 246.074 158.166C246.676 158.487 247.168 158.98 247.49 159.582C247.897 160.343 247.897 161.35 247.897 163.362V180.173H236.69V163.362Z" fill="#083156"/><path d="M246.173 99.1377H237.552C234.301 99.1377 232.675 99.1377 231.665 100.148C230.655 101.158 230.655 102.783 230.655 106.034V180.172" stroke="white" stroke-width="1.5" stroke-linecap="round"/><path d="M228.931 106.897C228.931 102.853 228.931 100.831 230 99.4377C230.275 99.0791 230.596 98.7581 230.955 98.4829C232.348 97.4141 234.37 97.4141 238.414 97.4141V97.4141C242.458 97.4141 244.48 97.4141 245.873 98.4829C246.232 98.7581 246.553 99.0791 246.828 99.4377C247.897 100.831 247.897 102.853 247.897 106.897V180.173H228.931V106.897Z" stroke="#083156" stroke-width="1.5"/><path opacity="0.22" d="M241 105.603C241 104.392 241 103.787 241.291 103.352C241.416 103.164 241.578 103.002 241.766 102.877C242.201 102.586 242.806 102.586 244.017 102.586C245.228 102.586 245.833 102.586 246.268 102.877C246.456 103.002 246.618 103.164 246.744 103.352C247.034 103.787 247.034 104.392 247.034 105.603V180.172H241V105.603Z" fill="#083156"/><path opacity="0.2" d="M228.931 103.88C228.931 102.669 228.931 102.063 229.222 101.629C229.348 101.44 229.509 101.279 229.697 101.153C230.132 100.862 230.738 100.862 231.948 100.862C233.159 100.862 233.765 100.862 234.199 101.153C234.388 101.279 234.549 101.44 234.675 101.629C234.966 102.063 234.966 102.669 234.966 103.88V180.173H228.931V103.88Z" fill="#083156"/><path d="M308.241 113.793C308.241 109.749 308.241 107.727 309.31 106.334C309.585 105.976 309.906 105.655 310.265 105.379C311.658 104.311 313.68 104.311 317.724 104.311C321.768 104.311 323.79 104.311 325.183 105.379C325.542 105.655 325.863 105.976 326.138 106.334C327.207 107.727 327.207 109.749 327.207 113.793V180.173H308.241V113.793Z" fill="#FFD9AB"/><path opacity="0.2" d="M313.414 156.034C313.414 152.783 313.414 151.158 314.424 150.148C315.434 149.138 317.059 149.138 320.31 149.138H321.172C324.423 149.138 326.049 149.138 327.059 150.148C328.069 151.158 328.069 152.783 328.069 156.034V180.172H313.414V156.034Z" fill="#FA811B"/><path d="M325.483 106.034H316.862C313.611 106.034 311.985 106.034 310.975 107.044C309.965 108.054 309.965 109.68 309.965 112.931V180.172" stroke="white" stroke-width="1.5" stroke-linecap="round"/><path d="M308.241 113.793C308.241 109.749 308.241 107.727 309.31 106.334C309.585 105.976 309.906 105.655 310.265 105.379C311.658 104.311 313.68 104.311 317.724 104.311V104.311C321.768 104.311 323.79 104.311 325.183 105.379C325.542 105.655 325.863 105.976 326.138 106.334C327.207 107.727 327.207 109.749 327.207 113.793V180.173H308.241V113.793Z" stroke="#083156" stroke-width="1.5"/><path opacity="0.1" d="M308.241 108.621C308.241 106.996 308.241 106.183 308.746 105.678C308.746 105.678 308.746 105.678 308.746 105.678C309.251 105.173 310.064 105.173 311.689 105.173C313.315 105.173 314.128 105.173 314.633 105.678C314.633 105.678 314.633 105.678 314.633 105.678C315.138 106.183 315.138 106.996 315.138 108.621V179.311H308.241V108.621Z" fill="#083156"/><circle opacity="0.3" cx="318.155" cy="171.12" r="4.74138" fill="#A65D14"/><path opacity="0.2" d="M316.862 143.534C316.862 143.133 316.862 142.932 316.927 142.773C317.015 142.562 317.183 142.394 317.394 142.307C317.552 142.241 317.753 142.241 318.155 142.241C318.557 142.241 318.757 142.241 318.916 142.307C319.127 142.394 319.295 142.562 319.382 142.773C319.448 142.932 319.448 143.133 319.448 143.534V161.638C319.448 162.039 319.448 162.24 319.382 162.399C319.295 162.61 319.127 162.778 318.916 162.865C318.757 162.931 318.557 162.931 318.155 162.931C317.753 162.931 317.552 162.931 317.394 162.865C317.183 162.778 317.015 162.61 316.927 162.399C316.862 162.24 316.862 162.039 316.862 161.638V143.534Z" fill="#A65D14"/><path d="M447.035 114.655C447.035 109.779 447.035 107.34 448.55 105.826C450.065 104.311 452.503 104.311 457.379 104.311C462.256 104.311 464.694 104.311 466.209 105.826C467.724 107.34 467.724 109.779 467.724 114.655V180.173H447.035V114.655Z" fill="#FFD9AB"/><path opacity="0.2" d="M452.207 156.034C452.207 152.783 452.207 151.158 453.217 150.148C454.227 149.138 455.853 149.138 459.104 149.138H460.828C464.079 149.138 465.704 149.138 466.714 150.148C467.724 151.158 467.724 152.783 467.724 156.034V180.172H452.207V156.034Z" fill="#FA811B"/><path d="M466 106.034H455.655C452.404 106.034 450.779 106.034 449.769 107.044C448.759 108.054 448.759 109.68 448.759 112.931V180.172" stroke="white" stroke-width="1.5" stroke-linecap="round"/><path d="M447.035 114.655C447.035 109.779 447.035 107.34 448.55 105.826C450.065 104.311 452.503 104.311 457.379 104.311V104.311C462.256 104.311 464.694 104.311 466.209 105.826C467.724 107.34 467.724 109.779 467.724 114.655V180.173H447.035V114.655Z" stroke="#083156" stroke-width="1.5"/><path d="M64.2759 113.793C64.2759 109.749 64.2759 107.727 65.3447 106.334C65.6199 105.976 65.9409 105.655 66.2995 105.379C67.6925 104.311 69.7145 104.311 73.7586 104.311C77.8027 104.311 79.8248 104.311 81.2177 105.379C81.5764 105.655 81.8974 105.976 82.1725 106.334C83.2414 107.727 83.2414 109.749 83.2414 113.793V180.173H64.2759V113.793Z" fill="#F1F4F6"/><path opacity="0.09" d="M69.4482 156.034C69.4482 152.783 69.4482 151.158 70.4582 150.148C71.4682 149.138 73.0937 149.138 76.3448 149.138H77.2069C80.4579 149.138 82.0835 149.138 83.0934 150.148C84.1034 151.158 84.1034 152.783 84.1034 156.034V180.172H69.4482V156.034Z" fill="#3C5D87"/><path d="M81.5172 106.034H72.8966C69.6455 106.034 68.02 106.034 67.01 107.044C66 108.054 66 109.68 66 112.931V180.172" stroke="white" stroke-width="1.5" stroke-linecap="round"/><path d="M64.2759 113.793C64.2759 109.749 64.2759 107.727 65.3447 106.334C65.6199 105.976 65.9409 105.655 66.2995 105.379C67.6925 104.311 69.7145 104.311 73.7586 104.311V104.311C77.8027 104.311 79.8248 104.311 81.2177 105.379C81.5764 105.655 81.8974 105.976 82.1725 106.334C83.2414 107.727 83.2414 109.749 83.2414 113.793V180.173H64.2759V113.793Z" stroke="#083156" stroke-width="1.5"/><path opacity="0.1" d="M76.3447 116.379C76.3447 116.234 76.3447 116.162 76.347 116.1C76.4112 114.378 77.7923 112.997 79.5143 112.933C79.5756 112.931 79.6481 112.931 79.793 112.931C79.9379 112.931 80.0104 112.931 80.0717 112.933C81.7937 112.997 83.1748 114.378 83.239 116.1C83.2413 116.162 83.2413 116.234 83.2413 116.379V180.172H76.3447V116.379Z" fill="#083156"/><path d="M327.207 121.551C327.207 118.695 329.523 116.379 332.379 116.379C335.236 116.379 337.552 118.695 337.552 121.551V180.172H327.207V121.551Z" fill="#FFD9AB"/><path d="M327.207 121.551C327.207 118.695 329.523 116.379 332.379 116.379C335.236 116.379 337.552 118.695 337.552 121.551V180.172H327.207V121.551Z" fill="#FFAA00" fill-opacity="0.3"/><path opacity="0.2" d="M328.931 153.448C328.931 152.647 328.931 152.246 328.997 151.913C329.27 150.545 330.339 149.476 331.707 149.204C332.04 149.138 332.44 149.138 333.241 149.138C334.043 149.138 334.443 149.138 334.776 149.204C336.144 149.476 337.213 150.545 337.486 151.913C337.552 152.246 337.552 152.647 337.552 153.448V180.172H328.931V153.448Z" fill="#FA811B"/><path d="M335.828 118.104H332.379C330.754 118.104 329.941 118.104 329.436 118.609C328.931 119.113 328.931 119.926 328.931 121.552V180.172" stroke="white" stroke-width="1.5" stroke-linecap="round"/><path d="M327.207 121.551C327.207 119.945 327.207 119.141 327.47 118.508C327.819 117.663 328.491 116.991 329.336 116.641C329.969 116.379 330.773 116.379 332.379 116.379V116.379C333.986 116.379 334.789 116.379 335.423 116.641C336.268 116.991 336.939 117.663 337.289 118.508C337.552 119.141 337.552 119.945 337.552 121.551V180.172H327.207V121.551Z" stroke="#083156" stroke-width="1.5"/><path opacity="0.1" d="M327.207 124.138C327.207 122.71 328.365 121.552 329.793 121.552C331.222 121.552 332.379 122.71 332.379 124.138V180.172H327.207V124.138Z" fill="#083156"/><path d="M337.552 121.551C337.552 118.695 339.868 116.379 342.724 116.379C345.581 116.379 347.897 118.695 347.897 121.551V180.172H337.552V121.551Z" fill="#FFD9AB"/><path d="M337.552 121.551C337.552 118.695 339.868 116.379 342.724 116.379C345.581 116.379 347.897 118.695 347.897 121.551V180.172H337.552V121.551Z" fill="#FFAA00" fill-opacity="0.3"/><path opacity="0.2" d="M339.276 153.448C339.276 152.647 339.276 152.246 339.342 151.913C339.614 150.545 340.684 149.476 342.051 149.204C342.385 149.138 342.785 149.138 343.586 149.138C344.387 149.138 344.788 149.138 345.121 149.204C346.489 149.476 347.558 150.545 347.83 151.913C347.897 152.246 347.897 152.647 347.897 153.448V180.172H339.276V153.448Z" fill="#FA811B"/><path d="M346.172 118.104H342.724C341.099 118.104 340.286 118.104 339.781 118.609C339.276 119.113 339.276 119.926 339.276 121.552V180.172" stroke="white" stroke-width="1.5" stroke-linecap="round"/><path d="M337.552 121.551C337.552 119.945 337.552 119.141 337.814 118.508C338.164 117.663 338.836 116.991 339.68 116.641C340.314 116.379 341.117 116.379 342.724 116.379V116.379C344.331 116.379 345.134 116.379 345.768 116.641C346.613 116.991 347.284 117.663 347.634 118.508C347.897 119.141 347.897 119.945 347.897 121.551V180.172H337.552V121.551Z" stroke="#083156" stroke-width="1.5"/><path opacity="0.1" d="M343.586 124.568C343.586 123.378 344.551 122.413 345.741 122.413C346.931 122.413 347.896 123.378 347.896 124.568V181.034H343.586V124.568Z" fill="#083156"/><path d="M439.276 120.258C439.276 119.858 439.276 119.658 439.292 119.489C439.454 117.852 440.749 116.557 442.386 116.396C442.555 116.379 442.755 116.379 443.155 116.379C443.555 116.379 443.756 116.379 443.924 116.396C445.561 116.557 446.857 117.852 447.018 119.489C447.034 119.658 447.034 119.858 447.034 120.258V180.172H439.276V120.258Z" fill="#F1F4F6"/><path d="M445.31 118.104H442.724C441.911 118.104 441.505 118.104 441.252 118.356C441 118.609 441 119.015 441 119.828V180.172" stroke="white" stroke-width="1.5" stroke-linecap="round"/><path d="M439.276 120.258C439.276 119.053 439.276 118.451 439.473 117.975C439.735 117.342 440.239 116.838 440.872 116.576C441.348 116.379 441.95 116.379 443.155 116.379V116.379C444.36 116.379 444.963 116.379 445.438 116.576C446.072 116.838 446.575 117.342 446.838 117.975C447.034 118.451 447.034 119.053 447.034 120.258V180.172H439.276V120.258Z" stroke="#083156" stroke-width="1.5"/><path opacity="0.1" d="M439.276 123.707C439.276 122.517 440.241 121.552 441.431 121.552C442.621 121.552 443.586 122.517 443.586 123.707V180.172H439.276V123.707Z" fill="#083156"/><path opacity="0.1" d="M445.311 122.845C445.311 122.131 445.889 121.552 446.604 121.552C447.318 121.552 447.897 122.131 447.897 122.845V180.172H445.311V122.845Z" fill="#083156"/><path d="M206.517 104.311C206.517 99.4341 206.517 96.9958 208.032 95.4808C209.547 93.9658 211.985 93.9658 216.862 93.9658H218.586C223.463 93.9658 225.901 93.9658 227.416 95.4808C228.931 96.9958 228.931 99.434 228.931 104.311V180.173H206.517V104.311Z" fill="#FFD9AB"/><path opacity="0.3" d="M213.414 107.759C213.414 106.133 213.414 105.321 213.919 104.816C214.424 104.311 215.236 104.311 216.862 104.311H220.31C221.936 104.311 222.748 104.311 223.253 104.816C223.758 105.321 223.758 106.133 223.758 107.759V121.552C223.758 123.177 223.758 123.99 223.253 124.495C222.748 125 221.936 125 220.31 125H216.862C215.236 125 214.424 125 213.919 124.495C213.414 123.99 213.414 123.177 213.414 121.552V107.759Z" fill="#FF9600"/><path d="M227.207 95.6895H215.138C211.887 95.6895 210.261 95.6895 209.251 96.6994C208.241 97.7094 208.241 99.3349 208.241 102.586V180.172" stroke="white" stroke-width="1.5" stroke-linecap="round"/><path d="M206.517 104.311C206.517 99.4341 206.517 96.9958 208.032 95.4808C209.547 93.9658 211.985 93.9658 216.862 93.9658H218.586C223.463 93.9658 225.901 93.9658 227.416 95.4808C228.931 96.9958 228.931 99.434 228.931 104.311V180.173H206.517V104.311Z" stroke="#083156" stroke-width="1.5"/><path opacity="0.1" d="M206.517 99.9998C206.517 99.0531 206.517 98.5798 206.614 98.1898C206.907 97.0049 207.833 96.0797 209.017 95.7861C209.407 95.6895 209.881 95.6895 210.827 95.6895C211.774 95.6895 212.247 95.6895 212.637 95.7861C213.822 96.0797 214.748 97.0049 215.041 98.1898C215.138 98.5798 215.138 99.0531 215.138 99.9998V180.172H206.517V99.9998Z" fill="#083156"/><path d="M166 81.8966C166 77.02 166 74.5817 167.515 73.0667C169.03 71.5518 171.468 71.5518 176.345 71.5518H196.172C201.049 71.5518 203.487 71.5518 205.002 73.0667C206.517 74.5817 206.517 77.02 206.517 81.8966V180.172H166V81.8966Z" fill="#C5CEDB"/><path opacity="0.1" d="M173.759 156.034C173.759 152.783 173.759 151.158 174.769 150.148C175.779 149.138 177.404 149.138 180.655 149.138H199.621C202.872 149.138 204.497 149.138 205.507 150.148C206.517 151.158 206.517 152.783 206.517 156.034V180.172H173.759V156.034Z" fill="#3C5D87"/><path d="M204.793 73.2764H176.345C172.281 73.2764 170.249 73.2764 168.987 74.5388C167.724 75.8013 167.724 77.8332 167.724 81.8971V180.173" stroke="white" stroke-width="1.5" stroke-linecap="round"/><path d="M166 81.8966C166 77.02 166 74.5817 167.515 73.0667C169.03 71.5518 171.468 71.5518 176.345 71.5518H196.172C201.049 71.5518 203.487 71.5518 205.002 73.0667C206.517 74.5817 206.517 77.02 206.517 81.8966V180.172H166V81.8966Z" stroke="#083156" stroke-width="1.5"/><circle opacity="0.5" cx="186.259" cy="90.9481" r="2.15517" fill="#083156"/><circle opacity="0.5" cx="186.259" cy="160.776" r="2.15517" fill="#083156"/><path d="M103.931 58.6209C103.931 57.0095 103.931 56.2038 104.278 55.6036C104.505 55.2105 104.831 54.884 105.224 54.657C105.824 54.3105 106.63 54.3105 108.241 54.3105C109.853 54.3105 110.659 54.3105 111.259 54.657C111.652 54.884 111.978 55.2105 112.205 55.6036C112.552 56.2038 112.552 57.0095 112.552 58.6209V180.173H103.931V58.6209Z" fill="#E1E5EA"/><path d="M111.69 56.0342H109.104C107.478 56.0342 106.665 56.0342 106.16 56.5392C105.655 57.0442 105.655 57.8569 105.655 59.4824V180.172" stroke="white" stroke-width="1.5" stroke-linecap="round"/><path d="M103.931 58.6209C103.931 57.0095 103.931 56.2038 104.278 55.6036C104.505 55.2105 104.831 54.884 105.224 54.657C105.824 54.3105 106.63 54.3105 108.241 54.3105V54.3105C109.853 54.3105 110.659 54.3105 111.259 54.657C111.652 54.884 111.978 55.2105 112.205 55.6036C112.552 56.2038 112.552 57.0095 112.552 58.6209V180.173H103.931V58.6209Z" stroke="#083156" stroke-width="1.5"/><path opacity="0.12" d="M108.242 89.2245C108.242 88.0342 109.207 87.0693 110.397 87.0693C111.587 87.0693 112.552 88.0342 112.552 89.2245V180.173H108.242V89.2245Z" fill="#083156"/><path opacity="0.3" d="M107.379 60.3445C107.379 59.8684 107.765 59.4824 108.241 59.4824C108.718 59.4824 109.104 59.8684 109.104 60.3445V80.1721C109.104 80.6482 108.718 81.0341 108.241 81.0341C107.765 81.0341 107.379 80.6482 107.379 80.1721V60.3445Z" fill="#083156"/><path opacity="0.3" d="M107.379 171.552C107.379 171.075 107.765 170.689 108.241 170.689C108.718 170.689 109.104 171.075 109.104 171.552V174.138C109.104 174.614 108.718 175 108.241 175C107.765 175 107.379 174.614 107.379 174.138V171.552Z" fill="#083156"/><path opacity="0.3" d="M107.379 156.896C107.379 156.42 107.765 156.034 108.241 156.034C108.718 156.034 109.104 156.42 109.104 156.896V168.103C109.104 168.579 108.718 168.965 108.241 168.965C107.765 168.965 107.379 168.579 107.379 168.103V156.896Z" fill="#083156"/><path d="M112.552 58.6209C112.552 57.0095 112.552 56.2038 112.898 55.6036C113.125 55.2105 113.452 54.884 113.845 54.657C114.445 54.3105 115.251 54.3105 116.862 54.3105C118.474 54.3105 119.279 54.3105 119.879 54.657C120.272 54.884 120.599 55.2105 120.826 55.6036C121.172 56.2038 121.172 57.0095 121.172 58.6209V180.173H112.552V58.6209Z" fill="#E1E5EA"/><path d="M120.31 56.0342H117.724C116.099 56.0342 115.286 56.0342 114.781 56.5392C114.276 57.0442 114.276 57.8569 114.276 59.4824V180.172" stroke="white" stroke-width="1.5" stroke-linecap="round"/><path d="M112.552 58.6209C112.552 57.0095 112.552 56.2038 112.898 55.6036C113.125 55.2105 113.452 54.884 113.845 54.657C114.445 54.3105 115.251 54.3105 116.862 54.3105V54.3105C118.474 54.3105 119.279 54.3105 119.879 54.657C120.272 54.884 120.599 55.2105 120.826 55.6036C121.172 56.2038 121.172 57.0095 121.172 58.6209V180.173H112.552V58.6209Z" stroke="#083156" stroke-width="1.5"/><path opacity="0.12" d="M116.862 89.2245C116.862 88.0342 117.827 87.0693 119.017 87.0693C120.207 87.0693 121.172 88.0342 121.172 89.2245V180.173H116.862V89.2245Z" fill="#083156"/><path opacity="0.3" d="M116 60.3445C116 59.8684 116.386 59.4824 116.862 59.4824C117.338 59.4824 117.724 59.8684 117.724 60.3445V80.1721C117.724 80.6482 117.338 81.0341 116.862 81.0341C116.386 81.0341 116 80.6482 116 80.1721V60.3445Z" fill="#083156"/><path opacity="0.3" d="M116 171.552C116 171.075 116.386 170.689 116.862 170.689C117.338 170.689 117.724 171.075 117.724 171.552V174.138C117.724 174.614 117.338 175 116.862 175C116.386 175 116 174.614 116 174.138V171.552Z" fill="#083156"/><path opacity="0.3" d="M116 156.896C116 156.42 116.386 156.034 116.862 156.034C117.338 156.034 117.724 156.42 117.724 156.896V168.103C117.724 168.579 117.338 168.965 116.862 168.965C116.386 168.965 116 168.579 116 168.103V156.896Z" fill="#083156"/><path d="M121.172 58.6209C121.172 57.0095 121.172 56.2038 121.519 55.6036C121.746 55.2105 122.072 54.884 122.465 54.657C123.066 54.3105 123.871 54.3105 125.483 54.3105C127.094 54.3105 127.9 54.3105 128.5 54.657C128.893 54.884 129.22 55.2105 129.447 55.6036C129.793 56.2038 129.793 57.0095 129.793 58.6209V180.173H121.172V58.6209Z" fill="#E1E5EA"/><path d="M128.931 56.0342H126.345C124.719 56.0342 123.906 56.0342 123.401 56.5392C122.896 57.0442 122.896 57.8569 122.896 59.4824V180.172" stroke="white" stroke-width="1.5" stroke-linecap="round"/><path d="M121.172 58.6209C121.172 57.0095 121.172 56.2038 121.519 55.6036C121.746 55.2105 122.072 54.884 122.465 54.657C123.066 54.3105 123.871 54.3105 125.483 54.3105V54.3105C127.094 54.3105 127.9 54.3105 128.5 54.657C128.893 54.884 129.22 55.2105 129.447 55.6036C129.793 56.2038 129.793 57.0095 129.793 58.6209V180.173H121.172V58.6209Z" stroke="#083156" stroke-width="1.5"/><path opacity="0.12" d="M125.483 89.2245C125.483 88.0342 126.448 87.0693 127.638 87.0693C128.828 87.0693 129.793 88.0342 129.793 89.2245V180.173H125.483V89.2245Z" fill="#083156"/><path opacity="0.3" d="M124.621 60.3445C124.621 59.8684 125.007 59.4824 125.483 59.4824C125.959 59.4824 126.345 59.8684 126.345 60.3445V80.1721C126.345 80.6482 125.959 81.0341 125.483 81.0341C125.007 81.0341 124.621 80.6482 124.621 80.1721V60.3445Z" fill="#083156"/><path opacity="0.3" d="M124.621 171.552C124.621 171.075 125.007 170.689 125.483 170.689C125.959 170.689 126.345 171.075 126.345 171.552V174.138C126.345 174.614 125.959 175 125.483 175C125.007 175 124.621 174.614 124.621 174.138V171.552Z" fill="#083156"/><path opacity="0.3" d="M124.621 156.896C124.621 156.42 125.007 156.034 125.483 156.034C125.959 156.034 126.345 156.42 126.345 156.896V168.103C126.345 168.579 125.959 168.965 125.483 168.965C125.007 168.965 124.621 168.579 124.621 168.103V156.896Z" fill="#083156"/><path d="M129.793 58.6209C129.793 57.0095 129.793 56.2038 130.139 55.6036C130.366 55.2105 130.693 54.884 131.086 54.657C131.686 54.3105 132.492 54.3105 134.103 54.3105C135.715 54.3105 136.52 54.3105 137.121 54.657C137.514 54.884 137.84 55.2105 138.067 55.6036C138.414 56.2038 138.414 57.0095 138.414 58.6209V180.173H129.793V58.6209Z" fill="#E1E5EA"/><path d="M137.552 56.0342H134.965C133.34 56.0342 132.527 56.0342 132.022 56.5392C131.517 57.0442 131.517 57.8569 131.517 59.4824V180.172" stroke="white" stroke-width="1.5" stroke-linecap="round"/><path d="M129.793 58.6209C129.793 57.0095 129.793 56.2038 130.139 55.6036C130.366 55.2105 130.693 54.884 131.086 54.657C131.686 54.3105 132.492 54.3105 134.103 54.3105V54.3105C135.715 54.3105 136.52 54.3105 137.121 54.657C137.514 54.884 137.84 55.2105 138.067 55.6036C138.414 56.2038 138.414 57.0095 138.414 58.6209V180.173H129.793V58.6209Z" stroke="#083156" stroke-width="1.5"/><path opacity="0.12" d="M134.104 89.2245C134.104 88.0342 135.068 87.0693 136.259 87.0693C137.449 87.0693 138.414 88.0342 138.414 89.2245V180.173H134.104V89.2245Z" fill="#083156"/><path opacity="0.3" d="M133.241 60.3445C133.241 59.8684 133.627 59.4824 134.103 59.4824C134.579 59.4824 134.965 59.8684 134.965 60.3445V80.1721C134.965 80.6482 134.579 81.0341 134.103 81.0341C133.627 81.0341 133.241 80.6482 133.241 80.1721V60.3445Z" fill="#083156"/><path opacity="0.3" d="M133.241 171.552C133.241 171.075 133.627 170.689 134.103 170.689C134.579 170.689 134.965 171.075 134.965 171.552V174.138C134.965 174.614 134.579 175 134.103 175C133.627 175 133.241 174.614 133.241 174.138V171.552Z" fill="#083156"/><path opacity="0.3" d="M133.241 156.896C133.241 156.42 133.627 156.034 134.103 156.034C134.579 156.034 134.965 156.42 134.965 156.896V168.103C134.965 168.579 134.579 168.965 134.103 168.965C133.627 168.965 133.241 168.579 133.241 168.103V156.896Z" fill="#083156"/><path d="M270.31 68.1031C270.31 65.6648 270.31 64.4456 271.068 63.6881C271.068 63.6881 271.068 63.6881 271.068 63.6881C271.825 62.9307 273.044 62.9307 275.482 62.9307C277.921 62.9307 279.14 62.9307 279.897 63.6881C279.897 63.6881 279.897 63.6881 279.897 63.6881C280.655 64.4456 280.655 65.6648 280.655 68.1031V180.172H270.31V68.1031Z" fill="#E1E5EA"/><path d="M278.931 64.6543H272.897C272.084 64.6543 271.677 64.6543 271.425 64.9068C271.172 65.1593 271.172 65.5657 271.172 66.3784V180.172" stroke="white" stroke-width="1.5" stroke-linecap="round"/><path d="M270.31 68.1031C270.31 65.6648 270.31 64.4456 271.068 63.6881C271.068 63.6881 271.068 63.6881 271.068 63.6881C271.825 62.9307 273.044 62.9307 275.482 62.9307V62.9307C277.921 62.9307 279.14 62.9307 279.897 63.6881C279.897 63.6881 279.897 63.6881 279.897 63.6881C280.655 64.4456 280.655 65.6648 280.655 68.1031V180.172H270.31V68.1031Z" stroke="#083156" stroke-width="1.5"/><g opacity="0.5"><path d="M268.586 68.1035C272.735 68.1035 280.655 68.1035 280.655 68.1035" stroke="#083156" stroke-width="1.5" stroke-linecap="round"/><path d="M268.586 71.5518C272.735 71.5518 280.655 71.5518 280.655 71.5518" stroke="#083156" stroke-width="1.5" stroke-linecap="round"/><path d="M268.586 75C272.735 75 280.655 75 280.655 75" stroke="#083156" stroke-width="1.5" stroke-linecap="round"/><path d="M268.586 78.4482C272.735 78.4482 280.655 78.4482 280.655 78.4482" stroke="#083156" stroke-width="1.5" stroke-linecap="round"/><path d="M268.586 81.8965C272.735 81.8965 280.655 81.8965 280.655 81.8965" stroke="#083156" stroke-width="1.5" stroke-linecap="round"/><path d="M268.586 85.3447C272.735 85.3447 280.655 85.3447 280.655 85.3447" stroke="#083156" stroke-width="1.5" stroke-linecap="round"/><path d="M268.586 88.793C272.735 88.793 280.655 88.793 280.655 88.793" stroke="#083156" stroke-width="1.5" stroke-linecap="round"/><path d="M268.586 92.2412C272.735 92.2412 280.655 92.2412 280.655 92.2412" stroke="#083156" stroke-width="1.5" stroke-linecap="round"/><path d="M268.586 95.6895C272.735 95.6895 280.655 95.6895 280.655 95.6895" stroke="#083156" stroke-width="1.5" stroke-linecap="round"/><path d="M268.586 99.1377C272.735 99.1377 280.655 99.1377 280.655 99.1377" stroke="#083156" stroke-width="1.5" stroke-linecap="round"/><path d="M268.586 102.586C272.735 102.586 280.655 102.586 280.655 102.586" stroke="#083156" stroke-width="1.5" stroke-linecap="round"/><path d="M268.586 106.034C272.735 106.034 280.655 106.034 280.655 106.034" stroke="#083156" stroke-width="1.5" stroke-linecap="round"/><path d="M268.586 109.482C272.735 109.482 280.655 109.482 280.655 109.482" stroke="#083156" stroke-width="1.5" stroke-linecap="round"/><path d="M268.586 112.931C272.735 112.931 280.655 112.931 280.655 112.931" stroke="#083156" stroke-width="1.5" stroke-linecap="round"/><path d="M268.586 116.379C272.735 116.379 280.655 116.379 280.655 116.379" stroke="#083156" stroke-width="1.5" stroke-linecap="round"/><path d="M268.586 119.828C272.735 119.828 280.655 119.828 280.655 119.828" stroke="#083156" stroke-width="1.5" stroke-linecap="round"/><path d="M268.586 123.276C272.735 123.276 280.655 123.276 280.655 123.276" stroke="#083156" stroke-width="1.5" stroke-linecap="round"/><path d="M268.586 126.725C272.735 126.725 280.655 126.725 280.655 126.725" stroke="#083156" stroke-width="1.5" stroke-linecap="round"/><path d="M268.586 130.173C272.735 130.173 280.655 130.173 280.655 130.173" stroke="#083156" stroke-width="1.5" stroke-linecap="round"/><path d="M268.586 133.621C272.735 133.621 280.655 133.621 280.655 133.621" stroke="#083156" stroke-width="1.5" stroke-linecap="round"/><path d="M268.586 137.069C272.735 137.069 280.655 137.069 280.655 137.069" stroke="#083156" stroke-width="1.5" stroke-linecap="round"/><path d="M268.586 140.518C272.735 140.518 280.655 140.518 280.655 140.518" stroke="#083156" stroke-width="1.5" stroke-linecap="round"/><path d="M268.586 143.966C272.735 143.966 280.655 143.966 280.655 143.966" stroke="#083156" stroke-width="1.5" stroke-linecap="round"/><path d="M268.586 147.414C272.735 147.414 280.655 147.414 280.655 147.414" stroke="#083156" stroke-width="1.5" stroke-linecap="round"/><path d="M268.586 150.862C272.735 150.862 280.655 150.862 280.655 150.862" stroke="#083156" stroke-width="1.5" stroke-linecap="round"/><path d="M268.586 154.311C272.735 154.311 280.655 154.311 280.655 154.311" stroke="#083156" stroke-width="1.5" stroke-linecap="round"/><path d="M268.586 157.759C272.735 157.759 280.655 157.759 280.655 157.759" stroke="#083156" stroke-width="1.5" stroke-linecap="round"/><path d="M268.586 161.207C272.735 161.207 280.655 161.207 280.655 161.207" stroke="#083156" stroke-width="1.5" stroke-linecap="round"/><path d="M268.586 164.655C272.735 164.655 280.655 164.655 280.655 164.655" stroke="#083156" stroke-width="1.5" stroke-linecap="round"/><path d="M268.586 168.104C272.735 168.104 280.655 168.104 280.655 168.104" stroke="#083156" stroke-width="1.5" stroke-linecap="round"/><path d="M268.586 171.552C272.735 171.552 280.655 171.552 280.655 171.552" stroke="#083156" stroke-width="1.5" stroke-linecap="round"/><path d="M268.586 175C272.735 175 280.655 175 280.655 175" stroke="#083156" stroke-width="1.5" stroke-linecap="round"/></g><path opacity="0.12" d="M275.482 89.6546C275.482 88.2262 276.64 87.0684 278.069 87.0684C279.497 87.0684 280.655 88.2262 280.655 89.6546V180.172H275.482V89.6546Z" fill="#083156"/><path d="M280.655 99.1378C280.655 94.2612 280.655 91.8229 282.17 90.3079C283.685 88.793 286.124 88.793 291 88.793H297.897C302.773 88.793 305.212 88.793 306.727 90.3079C308.241 91.8229 308.241 94.2612 308.241 99.1378V180.172H280.655V99.1378Z" fill="#FFE999"/><path d="M288.414 113.793C288.414 111.761 288.414 110.745 289.045 110.114C289.677 109.482 290.692 109.482 292.724 109.482H296.173C298.205 109.482 299.221 109.482 299.852 110.114C300.483 110.745 300.483 111.761 300.483 113.793V156.896C300.483 158.928 300.483 159.944 299.852 160.575C299.221 161.207 298.205 161.207 296.173 161.207H292.724C290.692 161.207 289.677 161.207 289.045 160.575C288.414 159.944 288.414 158.928 288.414 156.896V113.793Z" fill="white" fill-opacity="0.9"/><path d="M300.382 109.583L299.852 110.114L300.382 109.583C299.904 109.105 299.307 108.908 298.637 108.818C298 108.732 297.196 108.732 296.225 108.732L296.173 108.732H292.724L292.672 108.732C291.701 108.732 290.897 108.732 290.26 108.818C289.59 108.908 288.993 109.105 288.515 109.583C288.037 110.062 287.84 110.658 287.75 111.328C287.664 111.965 287.664 112.769 287.664 113.74L287.664 113.793V156.896L287.664 156.949C287.664 157.92 287.664 158.724 287.75 159.361C287.84 160.031 288.037 160.627 288.515 161.106C288.993 161.584 289.59 161.781 290.26 161.871C290.897 161.957 291.701 161.957 292.672 161.957H292.724H296.173H296.225C297.196 161.957 298 161.957 298.637 161.871C299.307 161.781 299.904 161.584 300.382 161.106C300.86 160.627 301.057 160.031 301.147 159.361C301.233 158.724 301.233 157.92 301.233 156.949L301.233 156.896V113.793L301.233 113.74C301.233 112.769 301.233 111.965 301.147 111.328C301.057 110.658 300.86 110.062 300.382 109.583Z" stroke="#A65D14" stroke-opacity="0.18" stroke-width="1.5"/><path d="M306.517 90.5176H289.276C286.025 90.5176 284.399 90.5176 283.389 91.5276C282.379 92.5375 282.379 94.1631 282.379 97.4141V180.173" stroke="white" stroke-width="1.5" stroke-linecap="round"/><path d="M280.655 99.1378C280.655 94.2612 280.655 91.8229 282.17 90.3079C283.685 88.793 286.124 88.793 291 88.793H297.897C302.773 88.793 305.212 88.793 306.727 90.3079C308.241 91.8229 308.241 94.2612 308.241 99.1378V180.172H280.655V99.1378Z" stroke="#083156" stroke-width="1.5"/><path opacity="0.08" d="M280.655 95.2584C280.655 93.5921 282.006 92.2412 283.673 92.2412C285.339 92.2412 286.69 93.5921 286.69 95.2585V181.034H280.655V95.2584Z" fill="#083156"/><path d="M347.896 107.759C347.896 102.882 347.896 100.444 349.411 98.929C350.926 97.4141 353.365 97.4141 358.241 97.4141C363.118 97.4141 365.556 97.4141 367.071 98.929C368.586 100.444 368.586 102.882 368.586 107.759V180.173H347.896V107.759Z" fill="white"/><path d="M347.896 107.759C347.896 102.882 347.896 100.444 349.411 98.929C350.926 97.4141 353.365 97.4141 358.241 97.4141C363.118 97.4141 365.556 97.4141 367.071 98.929C368.586 100.444 368.586 102.882 368.586 107.759V180.173H347.896V107.759Z" fill="#3C5D87" fill-opacity="0.7"/><path opacity="0.34" d="M353.931 164.655C353.931 161.404 353.931 159.779 354.941 158.769C355.951 157.759 357.577 157.759 360.828 157.759H361.69C364.941 157.759 366.566 157.759 367.576 158.769C368.586 159.779 368.586 161.404 368.586 164.655V180.173H353.931V164.655Z" fill="#3C5D87"/><path d="M366.862 99.1377H356.517C353.266 99.1377 351.641 99.1377 350.631 100.148C349.621 101.158 349.621 102.783 349.621 106.034V180.172" stroke="white" stroke-width="1.5" stroke-linecap="round"/><path opacity="0.54" d="M352.207 107.759H368.155" stroke="#083156" stroke-width="1.5" stroke-linecap="round"/><path opacity="0.54" d="M352.207 166.379H368.155" stroke="#083156" stroke-width="1.5" stroke-linecap="round"/><path opacity="0.54" d="M352.207 111.207H368.155" stroke="#083156" stroke-width="1.5" stroke-linecap="round"/><path opacity="0.54" d="M352.207 169.828H368.155" stroke="#083156" stroke-width="1.5" stroke-linecap="round"/><path d="M347.896 107.759C347.896 102.882 347.896 100.444 349.411 98.929C350.926 97.4141 353.365 97.4141 358.241 97.4141V97.4141C363.118 97.4141 365.556 97.4141 367.071 98.929C368.586 100.444 368.586 102.882 368.586 107.759V180.173H347.896V107.759Z" stroke="#083156" stroke-width="1.5"/><path opacity="0.1" d="M359.965 106.896C359.965 105.95 359.965 105.476 360.062 105.086C360.356 103.901 361.281 102.976 362.466 102.683C362.856 102.586 363.329 102.586 364.276 102.586C365.222 102.586 365.696 102.586 366.086 102.683C367.271 102.976 368.196 103.901 368.489 105.086C368.586 105.476 368.586 105.95 368.586 106.896V179.31H359.965V106.896Z" fill="#083156"/><path d="M415.138 107.759C415.138 102.882 415.138 100.444 416.653 98.929C418.168 97.4141 420.606 97.4141 425.483 97.4141H428.931C433.807 97.4141 436.246 97.4141 437.761 98.929C439.276 100.444 439.276 102.882 439.276 107.759V180.173H415.138V107.759Z" fill="#C5CEDB"/><path opacity="0.15" d="M421.172 164.655C421.172 161.404 421.172 159.779 422.182 158.769C423.192 157.759 424.818 157.759 428.069 157.759H432.379C435.63 157.759 437.256 157.759 438.266 158.769C439.276 159.779 439.276 161.404 439.276 164.655V180.173H421.172V164.655Z" fill="#3C5D87"/><path d="M437.551 99.1377H423.758C420.507 99.1377 418.882 99.1377 417.872 100.148C416.862 101.158 416.862 102.783 416.862 106.034V180.172" stroke="white" stroke-width="1.5" stroke-linecap="round"/><path d="M415.138 107.759C415.138 102.882 415.138 100.444 416.653 98.929C418.168 97.4141 420.606 97.4141 425.483 97.4141H428.931C433.807 97.4141 436.246 97.4141 437.761 98.929C439.276 100.444 439.276 102.882 439.276 107.759V180.173H415.138V107.759Z" stroke="#083156" stroke-width="1.5"/><path opacity="0.08" d="M415.138 108.621C415.138 107.674 415.138 107.201 415.234 106.811C415.528 105.626 416.453 104.701 417.638 104.407C418.028 104.311 418.501 104.311 419.448 104.311C420.395 104.311 420.868 104.311 421.258 104.407C422.443 104.701 423.368 105.626 423.662 106.811C423.758 107.201 423.758 107.674 423.758 108.621V180.173H415.138V108.621Z" fill="#083156"/><path d="M368.586 90.5177C368.586 85.6411 368.586 83.2028 370.101 81.6878C371.616 80.1729 374.054 80.1729 378.931 80.1729H385.827C390.704 80.1729 393.142 80.1729 394.657 81.6878C396.172 83.2028 396.172 85.6411 396.172 90.5177V180.173H368.586V90.5177Z" fill="#F1F4F6"/><path opacity="0.15" d="M379.793 87.0691C379.793 86.593 380.179 86.207 380.655 86.207C381.131 86.207 381.517 86.593 381.517 87.0691V100C381.517 100.476 381.131 100.862 380.655 100.862C380.179 100.862 379.793 100.476 379.793 100V87.0691Z" fill="#083156"/><path opacity="0.15" d="M382.379 109.483V156.035" stroke="#3C5D87" stroke-width="1.5" stroke-linecap="round"/><path opacity="0.15" d="M379.793 166.38C379.793 165.904 380.179 165.518 380.655 165.518C381.131 165.518 381.517 165.904 381.517 166.38V174.138C381.517 174.614 381.131 175 380.655 175C380.179 175 379.793 174.614 379.793 174.138V166.38Z" fill="#083156"/><path opacity="0.15" d="M383.241 87.0691C383.241 86.593 383.627 86.207 384.103 86.207C384.579 86.207 384.965 86.593 384.965 87.0691V94.8277C384.965 95.3038 384.579 95.6898 384.103 95.6898C383.627 95.6898 383.241 95.3038 383.241 94.8277V87.0691Z" fill="#083156"/><path opacity="0.15" d="M383.241 166.38C383.241 165.904 383.627 165.518 384.103 165.518C384.579 165.518 384.965 165.904 384.965 166.38V174.138C384.965 174.614 384.579 175 384.103 175C383.627 175 383.241 174.614 383.241 174.138V166.38Z" fill="#083156"/><path d="M394.448 81.8975H377.207C373.956 81.8975 372.33 81.8975 371.32 82.9074C370.31 83.9174 370.31 85.5429 370.31 88.794V180.173" stroke="white" stroke-width="1.5" stroke-linecap="round"/><path d="M368.586 90.5177C368.586 85.6411 368.586 83.2028 370.101 81.6878C371.616 80.1729 374.054 80.1729 378.931 80.1729H385.827C390.704 80.1729 393.142 80.1729 394.657 81.6878C396.172 83.2028 396.172 85.6411 396.172 90.5177V180.173H368.586V90.5177Z" stroke="#083156" stroke-width="1.5"/><path opacity="0.06" d="M387.551 108.621C387.551 107.674 387.551 107.201 387.648 106.811C387.942 105.626 388.867 104.701 390.052 104.407C390.442 104.311 390.915 104.311 391.862 104.311C392.808 104.311 393.282 104.311 393.672 104.407C394.857 104.701 395.782 105.626 396.075 106.811C396.172 107.201 396.172 107.674 396.172 108.621V180.173H387.551V108.621Z" fill="#083156"/><path d="M396.172 72.4134C396.172 68.3693 396.172 66.3473 397.241 64.9543C397.516 64.5957 397.837 64.2747 398.196 63.9995C399.589 62.9307 401.611 62.9307 405.655 62.9307C409.699 62.9307 411.721 62.9307 413.114 63.9995C413.473 64.2747 413.794 64.5957 414.069 64.9543C415.138 66.3473 415.138 68.3693 415.138 72.4134V180.172H396.172V72.4134Z" fill="#FFE999"/><path opacity="0.3" d="M396.172 131.896H415.138V180.172H396.172V131.896Z" fill="#FF9600"/><path d="M403.069 77.5862C403.069 76.3671 403.069 75.7575 403.448 75.3787C403.826 75 404.436 75 405.655 75C406.874 75 407.484 75 407.863 75.3787C408.241 75.7575 408.241 76.3671 408.241 77.5862V106.897C408.241 108.116 408.241 108.725 407.863 109.104C407.484 109.483 406.874 109.483 405.655 109.483C404.436 109.483 403.826 109.483 403.448 109.104C403.448 109.104 403.448 109.104 403.448 109.104C403.069 108.725 403.069 108.116 403.069 106.897V77.5862Z" fill="white" fill-opacity="0.9"/><path d="M403.186 109.854C403.479 110.047 403.807 110.134 404.136 110.179C404.539 110.233 405.039 110.233 405.607 110.233H405.655H405.703C406.271 110.233 406.771 110.233 407.174 110.179C407.609 110.12 408.041 109.986 408.393 109.634C408.745 109.282 408.879 108.851 408.937 108.415C408.991 108.013 408.991 107.513 408.991 106.944L408.991 106.897V77.5862L408.991 77.5384C408.991 76.9698 408.991 76.4699 408.937 76.0674C408.879 75.6321 408.745 75.2004 408.393 74.8484C408.041 74.4965 407.609 74.3626 407.174 74.304C406.771 74.2499 406.271 74.25 405.703 74.25C405.687 74.25 405.671 74.25 405.655 74.25C405.639 74.25 405.623 74.25 405.607 74.25C405.039 74.25 404.539 74.2499 404.136 74.304C403.701 74.3626 403.269 74.4965 402.917 74.8484C402.565 75.2004 402.431 75.6321 402.373 76.0674C402.319 76.4699 402.319 76.9698 402.319 77.5384C402.319 77.5543 402.319 77.5702 402.319 77.5862V106.897L402.319 106.944C402.319 107.513 402.319 108.013 402.373 108.415C402.431 108.851 402.565 109.282 402.917 109.634C402.918 109.635 402.918 109.635 402.919 109.636L403.137 109.854H403.186Z" stroke="#FFAA00" stroke-opacity="0.3" stroke-width="1.5"/><path opacity="0.25" d="M402.207 164.223C402.207 161.389 402.207 159.972 402.99 159.019C403.133 158.844 403.293 158.684 403.468 158.541C404.421 157.758 405.839 157.758 408.673 157.758C411.507 157.758 412.924 157.758 413.877 158.541C414.052 158.684 414.212 158.844 414.355 159.019C415.138 159.972 415.138 161.389 415.138 164.223V180.172H402.207V164.223Z" fill="#FFAA00"/><path d="M413.414 64.6543H404.793C401.542 64.6543 399.916 64.6543 398.906 65.6643C397.896 66.6743 397.896 68.2998 397.896 71.5508V180.172" stroke="white" stroke-width="1.5" stroke-linecap="round"/><path d="M396.172 72.4134C396.172 68.3693 396.172 66.3473 397.241 64.9543C397.516 64.5957 397.837 64.2747 398.196 63.9995C399.589 62.9307 401.611 62.9307 405.655 62.9307V62.9307C409.699 62.9307 411.721 62.9307 413.114 63.9995C413.473 64.2747 413.794 64.5957 414.069 64.9543C415.138 66.3473 415.138 68.3693 415.138 72.4134V180.172H396.172V72.4134Z" stroke="#083156" stroke-width="1.5"/><path d="M83.2412 81.8966C83.2412 77.02 83.2412 74.5817 84.7562 73.0667C86.2711 71.5518 88.7094 71.5518 93.586 71.5518C98.4626 71.5518 100.901 71.5518 102.416 73.0667C103.931 74.5817 103.931 77.02 103.931 81.8966V180.172H83.2412V81.8966Z" fill="#FFFAED"/><path d="M83.2412 81.8966C83.2412 77.02 83.2412 74.5817 84.7562 73.0667C86.2711 71.5518 88.7094 71.5518 93.586 71.5518C98.4626 71.5518 100.901 71.5518 102.416 73.0667C103.931 74.5817 103.931 77.02 103.931 81.8966V180.172H83.2412V81.8966Z" fill="#FFE999" fill-opacity="0.4"/><path opacity="0.25" d="M89.8247 140.441C89.8247 137.19 89.8247 135.565 90.8347 134.555C91.8447 133.545 93.4702 133.545 96.7213 133.545H97.0347C100.286 133.545 101.911 133.545 102.921 134.555C103.931 135.565 103.931 137.19 103.931 140.441V180.173H89.8247V140.441Z" fill="#FFC800"/><path d="M102.051 73.1494H92.0201C88.769 73.1494 87.1435 73.1494 86.1335 74.1594C85.1235 75.1694 85.1235 76.7949 85.1235 80.046V180.173" stroke="white" stroke-width="1.5" stroke-linecap="round"/><path d="M83.2412 81.8966C83.2412 77.02 83.2412 74.5817 84.7562 73.0667C86.2711 71.5518 88.7094 71.5518 93.586 71.5518V71.5518C98.4626 71.5518 100.901 71.5518 102.416 73.0667C103.931 74.5817 103.931 77.02 103.931 81.8966V180.172H83.2412V81.8966Z" stroke="#083156" stroke-width="1.5"/><path opacity="0.08" d="M96.3306 86.5597C96.3306 86.0872 96.3306 85.8509 96.3548 85.6524C96.538 84.1501 97.7219 82.9662 99.2241 82.783C99.4227 82.7588 99.659 82.7588 100.132 82.7588C100.604 82.7588 100.84 82.7588 101.039 82.783C102.541 82.9662 103.725 84.1501 103.908 85.6524C103.932 85.8509 103.932 86.0872 103.932 86.5597V180.173H96.3306V86.5597Z" fill="#083156"/><path opacity="0.1" d="M94.4482 175.862C94.4482 174.251 94.4482 173.445 94.7947 172.845C95.0217 172.452 95.3482 172.125 95.7413 171.898C96.3415 171.552 97.1472 171.552 98.7586 171.552H467.724C469.336 171.552 470.141 171.552 470.741 171.898C471.135 172.125 471.461 172.452 471.688 172.845C472.034 173.445 472.034 174.251 472.034 175.862C472.034 177.474 472.034 178.279 471.688 178.879C471.461 179.272 471.135 179.599 470.741 179.826C470.141 180.172 469.336 180.172 467.724 180.172H98.7586C97.1472 180.172 96.3415 180.172 95.7413 179.826C95.3482 179.599 95.0217 179.272 94.7947 178.879C94.4482 178.279 94.4482 177.474 94.4482 175.862Z" fill="#083156"/></svg>