<svg width="324" height="145" viewBox="0 0 324 145" fill="none" xmlns="http://www.w3.org/2000/svg"><g clip-path="url(#clip0_4342_107178)"><g opacity="0.4"><rect opacity="0.6" x="261.518" y="78.8828" width="74.614" height="74.614" rx="15.8501" transform="rotate(155.466 261.518 78.8828)" fill="#FFD9AB"/><rect opacity="0.6" x="126.222" y="108.859" width="46.8375" height="46.8375" rx="9.94956" transform="rotate(-76.2319 126.222 108.859)" fill="#FFD9AB"/><rect opacity="0.6" x="96.2435" y="86.5625" width="46.8375" height="46.8375" rx="9.94956" transform="rotate(-149.925 96.2435 86.5625)" fill="#FFD9AB"/><rect x="88.6391" y="43.2227" width="8.3957" height="8.3957" rx="2.40062" transform="rotate(112.532 88.6391 43.2227)" fill="#FFD9AB"/><rect width="8.3957" height="8.3957" rx="2.40062" transform="matrix(0.3832 0.923665 0.923665 -0.3832 221.686 73.1934)" fill="#FFD9AB"/><rect width="9.81878" height="9.81878" rx="2.80753" transform="matrix(-0.746537 0.665344 0.665344 0.746537 112.997 19.0059)" fill="#FFD9AB"/><rect width="3.83746" height="3.83746" rx="1.09726" transform="matrix(-0.184328 0.982865 0.982865 0.184328 249.374 43.0059)" fill="#FFD9AB"/><rect width="3.83746" height="3.83746" rx="1.09726" transform="matrix(0.436878 0.899521 0.899521 -0.436878 69.3422 90.3574)" fill="#FFD9AB"/><rect width="3.83746" height="3.83746" rx="1.09726" transform="matrix(-0.184328 0.982865 0.982865 0.184328 201.374 109.006)" fill="#FFD9AB"/><rect width="3.83746" height="3.83746" rx="1.09726" transform="matrix(-0.184328 0.982865 0.982865 0.184328 202.374 11.0059)" fill="#FFD9AB"/><rect width="3.83746" height="3.83746" rx="1.09726" transform="matrix(-0.184328 0.982865 0.982865 0.184328 120.374 14.0059)" fill="#FFD9AB"/></g><path d="M175.16 49.378C176.47 41.9501 177.125 38.2362 179.84 36.3355C182.554 34.4349 186.268 35.0897 193.696 36.3995L232.909 43.3139C240.337 44.6236 244.051 45.2785 245.952 47.9929C247.853 50.7074 247.198 54.4213 245.888 61.8492L240.107 94.6331C238.798 102.061 238.143 105.775 235.428 107.676C232.714 109.576 229 108.921 221.572 107.612L182.358 100.697C174.93 99.3875 171.217 98.7327 169.316 96.0182C167.415 93.3038 168.07 89.5898 169.38 82.162L175.16 49.378Z" fill="white" stroke="#3C5D87" stroke-width="1.5"/><rect x="182.479" y="45.4727" width="46.7909" height="2.17632" rx="1.08816" transform="rotate(10 182.479 45.4727)" fill="#F1F4F6"/><rect x="182.479" y="45.4727" width="17.4106" height="2.17632" rx="1.08816" transform="rotate(10 182.479 45.4727)" fill="#FFD9AB"/><rect x="183.424" y="40.1133" width="13.0579" height="2.17632" rx="1" transform="rotate(10 183.424 40.1133)" fill="#E1E5EA"/><rect x="232.719" y="48.8066" width="8.70529" height="7.61713" rx="1.5" transform="rotate(10 232.719 48.8066)" fill="#FFD9AB"/><rect x="213.877" y="92.9961" width="19.5869" height="6.52897" rx="1.5" transform="rotate(10 213.877 92.9961)" fill="#3C5D87"/><rect x="198.018" y="57.6016" width="41.3501" height="27.204" rx="1.5" transform="rotate(10 198.018 57.6016)" fill="white" stroke="#3C5D87" stroke-width="1.25"/><rect x="180.967" y="54.043" width="13.0579" height="13.0579" rx="3" transform="rotate(10 180.967 54.043)" fill="#FFD9AB"/><path d="M122.757 51.0098C122.757 43.4673 122.757 39.6961 125.1 37.3529C127.443 35.0098 131.215 35.0098 138.757 35.0098H178.576C186.118 35.0098 189.89 35.0098 192.233 37.3529C194.576 39.6961 194.576 43.4673 194.576 51.0098V84.2995C194.576 91.8419 194.576 95.6132 192.233 97.9563C189.89 100.299 186.118 100.299 178.576 100.299H138.757C131.215 100.299 127.443 100.299 125.1 97.9563C122.757 95.6132 122.757 91.8419 122.757 84.2995V51.0098Z" fill="white" stroke="#3C5D87" stroke-width="1.5"/><rect x="129.286" y="45.8926" width="46.7909" height="2.17632" rx="1.08816" fill="#F1F4F6"/><rect x="129.286" y="45.8926" width="17.4106" height="2.17632" rx="1.08816" fill="#FFD9AB"/><rect x="129.286" y="40.4512" width="13.0579" height="2.17632" rx="1" fill="#E1E5EA"/><rect x="179.342" y="40.4512" width="8.70529" height="7.61713" rx="1.5" fill="#FFD9AB"/><rect x="135.815" y="58.9492" width="45.7028" height="2.17632" rx="1.08816" fill="#E1E5EA"/><rect x="132.55" y="64.3906" width="52.2318" height="2.17632" rx="1.08816" fill="#E1E5EA"/><rect x="136.903" y="69.832" width="43.5265" height="2.17632" rx="1.08816" fill="#E1E5EA"/><rect x="149.961" y="75.2715" width="17.4106" height="2.17632" rx="1.08816" fill="#E1E5EA"/><rect x="168.46" y="87.2422" width="19.5869" height="6.52897" rx="1.5" fill="#3C5D87"/><path d="M71.4457 61.8487C70.136 54.4208 69.4811 50.7069 71.3818 47.9925C73.2825 45.278 76.9964 44.6232 84.4243 43.3134L123.638 36.399C131.066 35.0893 134.78 34.4344 137.494 36.335C140.209 38.2357 140.864 41.9497 142.173 49.3775L147.954 82.1615C149.264 89.5894 149.919 93.3033 148.018 96.0177C146.117 98.7322 142.403 99.387 134.975 100.697L95.7617 107.611C88.3338 108.921 84.6199 109.576 81.9055 107.675C79.191 105.774 78.5362 102.061 77.2264 94.6327L71.4457 61.8487Z" fill="white" stroke="#3C5D87" stroke-width="1.5"/><rect x="76.9867" y="55.6738" width="46.7909" height="2.17632" rx="1.08816" transform="rotate(-10 76.9867 55.6738)" fill="#F1F4F6"/><rect x="76.9867" y="55.6738" width="17.4106" height="2.17632" rx="1.08816" transform="rotate(-10 76.9867 55.6738)" fill="#FFD9AB"/><rect x="76.0414" y="50.3145" width="13.0579" height="2.17632" rx="1" transform="rotate(-10 76.0414 50.3145)" fill="#E1E5EA"/><rect x="125.336" y="41.623" width="8.70529" height="7.61713" rx="1.5" transform="rotate(-10 125.336 41.623)" fill="#FFD9AB"/><rect x="122.746" y="89.5938" width="19.5869" height="6.52897" rx="1.5" transform="rotate(-10 122.746 89.5938)" fill="#3C5D87"/><rect x="78.5931" y="64.7852" width="58.7607" height="27.204" rx="1.5" transform="rotate(-10 78.5931 64.7852)" fill="white" stroke="#3C5D87" stroke-width="1.25"/><path d="M80.64 73.2637L137.436 63.2489" stroke="#3C5D87" stroke-width="1.25"/><path d="M97.7875 60.8477L102.511 87.6384" stroke="#3C5D87" stroke-width="1.25"/><path d="M117.077 57.4473L121.801 84.238" stroke="#3C5D87" stroke-width="1.25"/><path d="M82.2465 82.3711L139.043 72.3564" stroke="#3C5D87" stroke-width="1.25"/><rect x="131.575" y="58.2031" width="3.26448" height="2.7204" rx="1" transform="rotate(-10 131.575 58.2031)" fill="#DBDEE1"/><rect x="133.181" y="67.3125" width="3.26448" height="2.7204" rx="1" transform="rotate(-10 133.181 67.3125)" fill="#DBDEE1"/><rect x="134.787" y="76.4219" width="3.26448" height="2.7204" rx="1" transform="rotate(-10 134.787 76.4219)" fill="#DBDEE1"/><rect x="112.285" y="61.6055" width="3.26448" height="2.7204" rx="1" transform="rotate(-10 112.285 61.6055)" fill="#DBDEE1"/><rect x="113.892" y="70.7148" width="3.26448" height="2.7204" rx="1" transform="rotate(-10 113.892 70.7148)" fill="#DBDEE1"/><rect x="115.498" y="79.8242" width="3.26448" height="2.7204" rx="1" transform="rotate(-10 115.498 79.8242)" fill="#DBDEE1"/><rect x="92.9965" y="65.0078" width="3.26448" height="2.7204" rx="1" transform="rotate(-10 92.9965 65.0078)" fill="#DBDEE1"/><rect x="94.6022" y="74.1152" width="3.26448" height="2.7204" rx="1" transform="rotate(-10 94.6022 74.1152)" fill="#DBDEE1"/><rect x="96.2085" y="83.2246" width="3.26448" height="2.7204" rx="1" transform="rotate(-10 96.2085 83.2246)" fill="#DBDEE1"/><rect opacity="0.12" x="140.168" y="95.9473" width="45.7028" height="9.88162" rx="4" fill="#3C5D87"/><rect opacity="0.12" x="136.472" y="40.6367" width="10.8816" height="53.3199" rx="4" transform="rotate(-10 136.472 40.6367)" fill="#3C5D87"/><rect opacity="0.12" x="191.074" y="42.5508" width="10.8816" height="53.3199" rx="4" fill="#3C5D87"/><g opacity="0.3"><path d="M167.041 24.0059L162.667 28.3797" stroke="#FF9600" stroke-width="1.5" stroke-linecap="round"/><path d="M158.485 20.1973L158.485 26.3828" stroke="#FF9600" stroke-width="1.5" stroke-linecap="round"/><path d="M154.201 28.5664L149.827 24.1926" stroke="#FF9600" stroke-width="1.5" stroke-linecap="round"/></g></g><defs><clipPath id="clip0_4342_107178"><rect width="200" height="120" fill="white" transform="translate(58.6666 6.00586)"/></clipPath></defs></svg>